<?xml version="1.0"?>
<svg xmlns="http://www.w3.org/2000/svg" viewBox="0 0 512 512" width="512" height="512"><g id="filled_outline" data-name="filled outline"><rect x="56" y="152" width="400" height="136" rx="67.99993" style="fill:#4976f2"/><rect x="272" y="184" width="136" height="64" rx="31.99997" style="fill:#486be0"/><path d="M341.30615,206.65307l20.75466,10.37734a16,16,0,0,0,21.27307-6.78143l41.60733-78.01376A127.99964,127.99964,0,0,0,440,72.00008V72a48,48,0,0,0-48-48H370.42219a34.42215,34.42215,0,0,0-19.094,5.78119l0,0A34.42214,34.42214,0,0,0,336,58.42219V79.02945A40.97052,40.97052,0,0,0,348,108l0,0a40.96336,40.96336,0,0,0,14.119,9.21344l.00079-.002L333.66863,186.2456A16,16,0,0,0,341.30615,206.65307Z" style="fill:#548aff"/><rect x="104" y="184" width="136" height="64" rx="31.99997" style="fill:#486be0"/><path d="M56,288H456a0,0,0,0,1,0,0V400a88,88,0,0,1-88,88H144a88,88,0,0,1-88-88V288A0,0,0,0,1,56,288Z" style="fill:#548aff"/><polygon points="344 288 344 304 328 320 184 320 168 304 168 288 344 288" style="fill:#486be0"/><path d="M336,24v88H304a32,32,0,0,1-32-32V56a32,32,0,0,1,32-32Z" style="fill:#91c0ff"/><path d="M170.69385,206.65307l-20.75466,10.37734a16,16,0,0,1-21.27307-6.78143L87.05879,132.23522A127.99964,127.99964,0,0,1,72,72.00008V72a48,48,0,0,1,48-48h21.57781a34.42215,34.42215,0,0,1,19.094,5.78119l0,0A34.42214,34.42214,0,0,1,176,58.42219V79.02945A40.97052,40.97052,0,0,1,164,108l0,0a40.96336,40.96336,0,0,1-14.119,9.21344l-.00079-.002,28.45117,69.03415A16,16,0,0,1,170.69385,206.65307Z" style="fill:#548aff"/><path d="M176,24v88h32a32,32,0,0,0,32-32V56a32,32,0,0,0-32-32Z" style="fill:#91c0ff"/><path d="M120,80h16a8,8,0,0,0,0-16H120a8,8,0,0,0,0,16Z"/><path d="M392,64H376a8,8,0,0,0,0,16h16a8,8,0,0,0,0-16Z"/><path d="M456,280H431.94458A79.92666,79.92666,0,0,0,464,216a71.69045,71.69045,0,0,0-40.20435-64.616L432.00049,136A136.48559,136.48559,0,0,0,448,72a56.06353,56.06353,0,0,0-56-56H370.42236a42.289,42.289,0,0,0-23.53174,7.125c-1.00268.66846-1.95776,1.38831-2.89062,2.13049V24a7.99977,7.99977,0,0,0-8-8H304a40.04521,40.04521,0,0,0-40,40V80a40.04521,40.04521,0,0,0,40,40h32a7.99525,7.99525,0,0,0,7.50476-5.25043,49.20535,49.20535,0,0,0,8.36047,6.34857L342.42664,144H169.57343l-9.43866-22.90186a49.20061,49.20061,0,0,0,8.36047-6.34857A7.99519,7.99519,0,0,0,176,120h32a40.04521,40.04521,0,0,0,40-40V56a40.04521,40.04521,0,0,0-40-40H176a7.99977,7.99977,0,0,0-8,8v1.25549c-.9328-.74218-1.88788-1.462-2.89062-2.13049A42.289,42.289,0,0,0,141.57764,16H120A56.06353,56.06353,0,0,0,64,72a136.48024,136.48024,0,0,0,16,64l8.20471,15.38385A71.69019,71.69019,0,0,0,48,216a79.92666,79.92666,0,0,0,32.05542,64H56a7.99977,7.99977,0,0,0-8,8V400a96.10874,96.10874,0,0,0,96,96H368a96.10874,96.10874,0,0,0,96-96V288A7.99977,7.99977,0,0,0,456,280ZM328,104H304a24.02687,24.02687,0,0,1-24-24V56a24.02687,24.02687,0,0,1,24-24h24Zm48.9707,8A32.97017,32.97017,0,0,1,344,79.0293V58.42236A26.42172,26.42172,0,0,1,370.42236,32H392a40.04521,40.04521,0,0,1,40,40,120.42945,120.42945,0,0,1-14.11719,56.4707l-41.60742,78.01319a7.95785,7.95785,0,0,1-10.63672,3.39111l-20.75488-10.37744a8.03118,8.03118,0,0,1-3.81885-10.20361l25.69776-62.353A49.42935,49.42935,0,0,0,376.9707,128H400V112ZM400,216a24.02687,24.02687,0,0,1-24,24H304a24,24,0,0,1,0-48h20.47925a24.10573,24.10573,0,0,0,13.24927,21.80811l20.75488,10.37744a24.11294,24.11294,0,0,0,10.80859,2.57422,23.86893,23.86893,0,0,0,21.10059-12.7461l5.83056-10.93219A23.92523,23.92523,0,0,1,400,216ZM187.52081,192H208a24,24,0,0,1,0,48H136a23.996,23.996,0,0,1-20.22327-36.9184l5.83069,10.93256A23.86511,23.86511,0,0,0,142.708,226.75977a24.11294,24.11294,0,0,0,10.80859-2.57422l20.75488-10.37744A24.10592,24.10592,0,0,0,187.52081,192ZM184,32h24a24.02687,24.02687,0,0,1,24,24V80a24.02687,24.02687,0,0,1-24,24H184Zm-64,0h21.57764A26.42172,26.42172,0,0,1,168,58.42236V79.0293A32.97017,32.97017,0,0,1,135.0293,112H112v16h23.0293a49.42935,49.42935,0,0,0,10.208-1.05908l25.69776,62.35254a8.03159,8.03159,0,0,1-3.81885,10.2041L146.36133,209.875a7.95694,7.95694,0,0,1-10.63672-3.39062L94.11768,128.4707A120.4241,120.4241,0,0,1,80,72,40.04521,40.04521,0,0,1,120,32ZM64,216a55.762,55.762,0,0,1,31.74225-50.48322l11.89038,22.29456A39.99132,39.99132,0,0,0,136,256h72a40,40,0,0,0,0-80H182.76178l-6.59418-16H335.83252l-6.59412,16H304a40,40,0,0,0,0,80h72a39.99136,39.99136,0,0,0,28.36743-68.18866l11.8905-22.29449A55.76183,55.76183,0,0,1,448,216a64.0727,64.0727,0,0,1-64,64H128A64.0727,64.0727,0,0,1,64,216Zm112,80H336v4.686L324.686,312H187.314L176,300.686ZM448,400a80.09041,80.09041,0,0,1-80,80H144a80.09041,80.09041,0,0,1-80-80V296h96v8a7.99877,7.99877,0,0,0,2.34326,5.65674l16,16A7.99877,7.99877,0,0,0,184,328H328a7.99877,7.99877,0,0,0,5.65674-2.34326l16-16A7.99877,7.99877,0,0,0,352,304v-8h96Z"/><circle cx="256" cy="376" r="8"/></g></svg>
