<svg height="512" viewBox="0 0 512 512" width="512" xmlns="http://www.w3.org/2000/svg"><g id="filled_outline" data-name="filled outline"><path d="m24 272h464v96h-464z" fill="#7dafff"/><circle cx="440" cy="320" fill="#639aff" r="16"/><circle cx="384" cy="320" fill="#639aff" r="16"/><path d="m488 272v-32a64 64 0 0 0 -64-64h-336a64 64 0 0 0 -64 64v32z" fill="#548aff"/><path d="m488 368v32a64 64 0 0 1 -64 64h-336a64 64 0 0 1 -64-64v-32z" fill="#548aff"/><path d="m72 232h16v16h-16z"/><path d="m120 200h16v16h-16z"/><path d="m136 232h16v16h-16z"/><path d="m168 232h16v16h-16z"/><path d="m104 232h16v16h-16z"/><path d="m184 200h16v16h-16z"/><path d="m200 232h16v16h-16z"/><path d="m248 200h16v16h-16z"/><path d="m264 232h16v16h-16z"/><path d="m312 200h16v16h-16z"/><path d="m328 232h16v16h-16z"/><path d="m392 232h16v16h-16z"/><path d="m376 200h16v16h-16z"/><path d="m231.494 232h16v16h-16z"/><path d="m296 232h16v16h-16z"/><path d="m360 232h16v16h-16z"/><path d="m424 232h16v16h-16z"/><path d="m152 200h16v16h-16z"/><path d="m88 200h16v16h-16z"/><path d="m215.494 200h16v16h-16z"/><path d="m280 200h16v16h-16z"/><path d="m344 200h16v16h-16z"/><path d="m408 200h16v16h-16z"/><path d="m88.00012 472h336a72.08187 72.08187 0 0 0 72-72v-160a72.08187 72.08187 0 0 0 -72-72h-336a72.08187 72.08187 0 0 0 -72 72v160a72.08187 72.08187 0 0 0 72 72zm392-160h-17.37612a23.995 23.995 0 0 0 -45.2478 0h-10.7522a23.995 23.995 0 0 0 -45.2478 0h-33.3761v16h33.3761a23.995 23.995 0 0 0 45.2478 0h10.7522a23.995 23.995 0 0 0 45.2478 0h17.3761v32h-448v-80h448zm-32 8a8 8 0 1 1 -8-8 8.00917 8.00917 0 0 1 8 8zm-56 0a8 8 0 1 1 -8-8 8.00917 8.00917 0 0 1 8 8zm-304-136h336a56.06353 56.06353 0 0 1 56 56v24h-448v-24a56.06353 56.06353 0 0 1 56-56zm-56 192h448v24a56.06353 56.06353 0 0 1 -56 56h-336a56.06353 56.06353 0 0 1 -56-56z"/><path d="m72 392h16v16h-16z"/><path d="m120 424h16v16h-16z"/><path d="m136 392h16v16h-16z"/><path d="m168 392h16v16h-16z"/><path d="m104 392h16v16h-16z"/><path d="m184 424h16v16h-16z"/><path d="m200 392h16v16h-16z"/><path d="m248 424h16v16h-16z"/><path d="m264 392h16v16h-16z"/><path d="m312 424h16v16h-16z"/><path d="m328 392h16v16h-16z"/><path d="m392 392h16v16h-16z"/><path d="m376 424h16v16h-16z"/><path d="m231.494 392h16v16h-16z"/><path d="m296 392h16v16h-16z"/><path d="m360 392h16v16h-16z"/><path d="m424 392h16v16h-16z"/><path d="m152 424h16v16h-16z"/><path d="m88 424h16v16h-16z"/><path d="m215.494 424h16v16h-16z"/><path d="m280 424h16v16h-16z"/><path d="m344 424h16v16h-16z"/><path d="m408 424h16v16h-16z"/><path d="m278.62756 113.37256a32.035 32.035 0 0 0 -45.25488 0l11.31348 11.31344a16.00123 16.00123 0 0 1 22.62793 0z"/><path d="m301.255 90.74512a64.07345 64.07345 0 0 0 -90.50976 0l11.31348 11.31347a48.05569 48.05569 0 0 1 67.88281 0z"/><path d="m312.569 79.43115 11.31348-11.31347a96.10841 96.10841 0 0 0 -135.76465 0l11.31347 11.31347a80.09244 80.09244 0 0 1 113.1377 0z"/><circle cx="256" cy="144" r="8"/><circle cx="56" cy="336" r="8"/><circle cx="80" cy="336" r="8"/></g></svg>