<svg height="512" viewBox="0 0 512 512" width="512" xmlns="http://www.w3.org/2000/svg"><g id="filled_outline" data-name="filled outline"><path d="m232 112v40l24 24v16h88v-80z" fill="#08d175"/><path d="m232 112v40l24 24v192h-168v-256z" fill="#02c26a"/><path d="m392 488h-48l-48-56h96z" fill="#4976f2"/><path d="m216 432-24 32h-24l-16 24h-32v-56z" fill="#4976f2"/><path d="m24 24v24l32 32h288l48-56z" fill="#639aff"/><path d="m56 80v320h48v-32l-16-16v-224l16-16v-32z" fill="#548aff"/><path d="m56 400h288v32h-288z" fill="#639aff"/><path d="m56 432v56h32l16-24h24l24-32z" fill="#548aff"/><path d="m392 24-48 56v352l48 56h96v-464z" fill="#548aff"/><path d="m264 112h48v24h-48z" fill="#02c26a"/><path d="m256 192h88v96h-88z" fill="#3cde8d"/><g fill="#08d175"><path d="m256 288h88v80h-88z"/><circle cx="136" cy="320" r="24"/><circle cx="208" cy="320" r="24"/><path d="m88 144h112v48h-112z"/></g><path d="m88 192h112v48h-112z" fill="#3cde8d"/><path d="m488 64h-40l-32-40h72z" fill="#4976f2"/><path d="m104 368h240v32h-240z" fill="#4976f2"/><path d="m104 80h240v32h-240z" fill="#4976f2"/><path d="m488.00012 16h-464a8.00008 8.00008 0 0 0 -8 8v24a8.00036 8.00036 0 0 0 2.34278 5.65674l29.65722 29.65726v404.686a8.00008 8.00008 0 0 0 8 8h32a7.99942 7.99942 0 0 0 6.65625-3.5625l13.625-20.4375h3.71875v16a8.00008 8.00008 0 0 0 8 8h32a7.99942 7.99942 0 0 0 6.65625-3.5625l13.625-20.4375h19.71875a8.00229 8.00229 0 0 0 6.40039-3.2002l21.59986-28.7998h72.32006l45.60547 53.20654a8.00258 8.00258 0 0 0 6.07422 2.79346h144a8.00008 8.00008 0 0 0 8-8v-464a8.00008 8.00008 0 0 0 -8-8zm-8 40h-28.15527l-19.19971-24h47.355zm-144 368h-272v-16h272zm-272-336h32v20.686l-13.65722 13.65726a8.00036 8.00036 0 0 0 -2.34278 5.65674v224a8.00036 8.00036 0 0 0 2.34278 5.65674l13.65722 13.65726v20.686h-32zm162.34278 69.65674 21.65722 21.65674v84.68652h-152v-16h104a8.00008 8.00008 0 0 0 8-8v-96a8.00008 8.00008 0 0 0 -8-8h-104v-4.686l11.31397-11.314h116.686v32a8.00036 8.00036 0 0 0 2.34281 5.65674zm-119.02881 202.34326-11.314-11.314v-68.686h152v80zm-11.314-160h96v32h-96zm96-16h-96v-32h96zm144 208h-224v-16h224zm0-32h-72v-64h72zm0-80h-72v-80h72zm0-96h-72v-8a8.00035 8.00035 0 0 0 -2.34277-5.65674l-21.65723-21.65674v-28.68652h16v16a8.00008 8.00008 0 0 0 8 8h48a8.00008 8.00008 0 0 0 8-8v-16h16zm-64-64h32v8h-32zm64-16h-224v-16h224zm-304-72h342.606l-34.28566 40h-281.00683l-27.31348-27.314zm72 424a7.99943 7.99943 0 0 0 -6.65625 3.5625l-13.62497 20.4375h-19.71875v-40h72l-12 16zm84 0h-20a7.99943 7.99943 0 0 0 -6.65625 3.5625l-13.62497 20.4375h-19.71875v-8a8.00229 8.00229 0 0 0 6.40039-3.2002l21.59986-28.7998h43.99975zm125.394-16h26.92626l34.28565 40h-26.92619zm82.28564 40-43.67969-50.95947v-346.08075l43.67977-50.95978h16.4751l29.59814 36.99756a7.99952 7.99952 0 0 0 6.24707 3.00244h32v408z"/><path d="m288 232h24v16h-24z"/><path d="m136.00012 288a32 32 0 1 0 32 32 32.03635 32.03635 0 0 0 -32-32zm0 48a16 16 0 1 1 16-16 16.01833 16.01833 0 0 1 -16 16z"/><path d="m208.00012 288a32 32 0 1 0 32 32 32.03635 32.03635 0 0 0 -32-32zm0 48a16 16 0 1 1 16-16 16.01833 16.01833 0 0 1 -16 16z"/><circle cx="120" cy="168" r="8"/><circle cx="144" cy="168" r="8"/><circle cx="120" cy="216" r="8"/><circle cx="144" cy="216" r="8"/></g></svg>