<svg height="512" viewBox="0 0 512 512" width="512" xmlns="http://www.w3.org/2000/svg"><g id="filled_outline" data-name="filled outline"><path d="m400 336a151.68733 151.68733 0 0 1 -7.53 47.37q-1.43994 4.425-3.1499 8.72a152.01287 152.01287 0 0 1 -29.3201 46.67l-52.07007 1.24a120.02072 120.02072 0 0 0 -59.92993-224v-32a151.89838 151.89838 0 0 1 152 152z" fill="#8098ab"/><g fill="#718799"><path d="m400 336a151.68733 151.68733 0 0 1 -7.53 47.37 120.07553 120.07553 0 0 1 -68.18 45.27 120.08254 120.08254 0 0 0 39.31006-60.31 87.58751 87.58751 0 0 0 20.39994-56.33v-43.96a151.35018 151.35018 0 0 1 16 67.96z"/><path d="m464 200a81.94105 81.94105 0 0 0 24-57.94107v-30.05893h-144v30.05891a81.94112 81.94112 0 0 0 24 57.94109z"/><path d="m24 104h144v96h-144z"/></g><path d="m40 24h112v80h-112z" fill="#8098ab"/><path d="m480 200h-128l8 32h120z" fill="#556c80"/><path d="m424 200a53.8962 53.8962 0 0 0 24-44.84436v-67.15564h-64v67.15562a53.8962 53.8962 0 0 0 24 44.84438" fill="#8098ab"/><path d="m440 272h-48l-8-40h64z" fill="#62798c"/><path d="m112 264v72.00012a119.99988 119.99988 0 0 0 119.99988 119.99988h80.00012a119.96252 119.96252 0 0 0 35.68432-5.395l.25642-.07758a151.41582 151.41582 0 0 1 -99.94045 37.47258h-16.00044a151.99985 151.99985 0 0 1 -151.99985-151.99985v-72.00015z" fill="#718799"/><path d="m432 272v64a120 120 0 0 1 -120 120h-80.00012a119.99988 119.99988 0 0 1 -119.99988-119.99988v-16.00039a135.99973 135.99973 0 0 1 135.99973-135.99973l.00017 32a103.9999 103.9999 0 0 0 -103.9999 103.9999v16.0001a88 88 0 0 0 88 88h80a88 88 0 0 0 88-88v-64z" fill="#8098ab"/><path d="m56 200h80v64h-80z" fill="#556c80"/><path d="m24.00012 208h24v56a8.00008 8.00008 0 0 0 8 8h16v64c0 88.22412 71.77539 160 160 160h16a159.88086 159.88086 0 0 0 103.977-38.40057 128.22223 128.22223 0 0 0 88.023-121.59943v-56a8.00041 8.00041 0 0 0 7.84473-6.43115l6.71387-33.56885h25.4414a8.00008 8.00008 0 0 0 8-8v-32a7.99992 7.99992 0 0 0 -7.14209-7.95258 89.30579 89.30579 0 0 0 15.14209-49.98834v-30.05908a8.00008 8.00008 0 0 0 -8-8h-8v-72h-16v72h-8v-16a8.00008 8.00008 0 0 0 -8-8h-24v-56a8 8 0 0 0 -16 0v56h-24a8.00008 8.00008 0 0 0 -8 8v16h-8v-72h-16v72h-8a8.00008 8.00008 0 0 0 -8 8v30.05908a89.30559 89.30559 0 0 0 15.14307 49.99 7.99472 7.99472 0 0 0 -6.90381 9.8913l1.9563 7.82489a159.19939 159.19939 0 0 0 -98.19556-33.76527 143.913 143.913 0 0 0 -72 19.31927v-91.31927a8.00008 8.00008 0 0 0 -8-8h-8v-72a8.00008 8.00008 0 0 0 -8-8h-112a8.00008 8.00008 0 0 0 -8 8v72h-8a8.00008 8.00008 0 0 0 -8 8v96a8.00008 8.00008 0 0 0 8 8zm40 32h24v-16h-24v-16h64v16h-24v16h24v16h-64zm184 240h-16c-79.40234 0-144-64.59814-144-144v-64h16v64a128.14509 128.14509 0 0 0 128 128h80c.67749 0 1.35132-.01514 2.02637-.0257a143.979 143.979 0 0 1 -66.02637 16.0257zm185.44141-216h-34.88281l-4.79981-24h44.48242zm38.55859-40h-105.7539l-4-16h109.7539zm8-104v22.05908a73.403 73.403 0 0 1 -19.42529 49.94092h-16.72315a61.78081 61.78081 0 0 0 12.14844-36.84424v-35.15576zm-88-24h48v59.15576a45.7873 45.7873 0 0 1 -18.55127 36.84424h-10.89746a45.7873 45.7873 0 0 1 -18.55127-36.84424zm-40 24h24v35.15576a61.78081 61.78081 0 0 0 12.14844 36.84424h-16.72314a73.403 73.403 0 0 1 -19.4253-49.94092zm40 216a79.96472 79.96472 0 0 1 -33.81933 65.2915 128.11291 128.11291 0 0 0 -110.18067-193.2915 112.12707 112.12707 0 0 0 -112 112v16a96.10874 96.10874 0 0 0 96 96h80a96.10874 96.10874 0 0 0 96-96v-56h16v56a112.12706 112.12706 0 0 1 -112 112h-80a112.12707 112.12707 0 0 1 -112-112v-16.00049a127.04209 127.04209 0 0 1 9.31226-47.99951h6.68774a8.00008 8.00008 0 0 0 8-8v-18.61267a128.10656 128.10656 0 0 1 104-53.38733c79.40235 0 144 64.59814 144 144zm-63.99023 78.39062a80.02675 80.02675 0 0 1 -16.00977 1.60938h-80a80.09041 80.09041 0 0 1 -80-80v-16a96.10874 96.10874 0 0 1 96-96 112.012 112.012 0 0 1 80.00977 190.39062zm-184.00977-193.972v-12.41862h13.52564a144.14063 144.14063 0 0 0 -13.52564 12.41858zm-96-188.41862h96v64h-96zm-16 80h128v80h-128z"/></g></svg>