<svg height="512" viewBox="0 0 512 512" width="512" xmlns="http://www.w3.org/2000/svg"><g id="filled_outline" data-name="filled outline"><path d="m88 181.33333-48.21771 8.03629a18.88735 18.88735 0 0 0 -15.78229 18.63038 18.88735 18.88735 0 0 0 15.78229 18.63036l32.21771 5.36964h16z" fill="#e0edff"/><path d="m168 168h272v232h-272z" fill="#548aff"/><path d="m296 192h112v32h-112z" fill="#4976f2"/><path d="m72 208h120v192h-120z" fill="#639aff"/><path d="m72 208 16-40h88l16 40z" fill="#7dafff"/><path d="m104 136h48v32h-48z" fill="#91c0ff"/><path d="m152 144h56v24h-56z" fill="#7dafff"/><path d="m440 184 32.21771 5.36962a18.88735 18.88735 0 0 1 15.78229 18.63038 18.88735 18.88735 0 0 1 -15.78229 18.63036l-32.21771 5.36964z" fill="#e0edff"/><path d="m376 192-32-80h-96l-32 80z" fill="#91c0ff"/><circle cx="296" cy="296" fill="#e0edff" r="104"/><circle cx="296" cy="296" fill="#bdd1f2" r="72"/><path d="m248 248h96v96h-96z" fill="#a4b9e0"/><path d="m473.53333 181.47852-25.53321-4.2555v-9.22302a7.99977 7.99977 0 0 0 -8-8h-68.18377l-20.38849-50.97119a7.99976 7.99976 0 0 0 -7.42774-5.02881h-96a7.99975 7.99975 0 0 0 -7.42773 5.02881l-20.38849 50.97119h-4.18378v-16a7.99977 7.99977 0 0 0 -8-8h-48a7.99977 7.99977 0 0 0 -8-8h-48a7.99977 7.99977 0 0 0 -8 8v24h-8a7.99975 7.99975 0 0 0 -7.42773 5.02881l-4.0423 10.10577-38.06317 6.34394a26.88736 26.88736 0 0 0 0 53.043l25.5332 4.25556v161.22292a7.99977 7.99977 0 0 0 8 8h368a7.99977 7.99977 0 0 0 8-8v-161.223l25.53321-4.2555a26.88736 26.88736 0 0 0 0-53.043zm-99.23584 34.52148a112.72723 112.72723 0 0 0 -20.66681-16h46.36944v16zm17.70263 80a96 96 0 1 1 -96-96 96.10874 96.10874 0 0 1 96 96zm-138.58349-176h85.167l25.6001 64h-136.3672zm-44.041 76.48486a7.99974 7.99974 0 0 0 6.62449 3.51514h22.36945a112.85913 112.85913 0 0 0 -38.36945 38.36945v-30.36945a7.96742 7.96742 0 0 0 -.57586-2.96973l.0036-.00146-.04853-.12128-.0122-.03052-11.55078-28.87701h25.96759l-5.21155 13.02881a7.99979 7.99979 0 0 0 .80322 7.45605zm-9.37551-44.48486v8h-40v-8zm-88-8h32v16h-32zm-18.58349 32h77.167l9.60022 24h-96.36744zm-52.31885 42.73926a10.88737 10.88737 0 0 1 0-21.47852l28.48059-4.74682-4.94525 12.36308-.01221.03052-.04852.12128.0036.00146a7.96742 7.96742 0 0 0 -.57587 2.96974v14.55634zm38.90234 173.26074v-176h104v176zm120 0v-38.36938a112.859 112.859 0 0 0 38.36945 38.36938zm232 0h-78.36944a111.8717 111.8717 0 0 0 34.22808-160h20.14136a7.99977 7.99977 0 0 0 8-8v-32a7.99977 7.99977 0 0 0 -8-8h-26.5838l-3.2-8h53.78381zm38.90235-173.26074-22.90235 3.81714v-29.1128l22.90235 3.81714a10.88737 10.88737 0 0 1 0 21.47852z"/><circle cx="464" cy="208" r="8"/><circle cx="48" cy="208" r="8"/><path d="m216.00012 296a80 80 0 1 0 80-80 80.09041 80.09041 0 0 0 -80 80zm110.93994-56h-61.87988a63.83 63.83 0 0 1 61.87988 0zm-70.93994 16h80v80h-80zm-24 40a63.592 63.592 0 0 1 8-30.93994v61.87988a63.592 63.592 0 0 1 -8-30.93994zm33.06006 56h61.87988a63.83 63.83 0 0 1 -61.87988 0zm94.93994-56a63.59193 63.59193 0 0 1 -8 30.93994v-61.87988a63.59193 63.59193 0 0 1 8 30.93994z"/><path d="m120 240h16v24h-16z"/><path d="m304 304h16v16h-16z"/><path d="m272 304h16v16h-16z"/><path d="m272 144h48v16h-48z"/></g></svg>