<svg height="512" viewBox="0 0 512 512" width="512" xmlns="http://www.w3.org/2000/svg"><g id="filled_outline" data-name="filled outline"><path d="m173.813 338.187-29.813 29.813-40 8-24-24 8-40 31.883-31.883z" fill="#d1e4ff"/><path d="m236 400a28.97051 28.97051 0 0 0 20.48526-8.48527l191.02955-191.02954a28.97024 28.97024 0 0 0 8.48519-20.48506v-.00025a28.97022 28.97022 0 0 0 -8.48521-20.48507l-127.02986-127.02964a28.97025 28.97025 0 0 0 -20.48504-8.48517 28.97024 28.97024 0 0 0 -20.48506 8.48519l-191.02956 191.02954a28.97051 28.97051 0 0 0 -8.48527 20.48527 28.97051 28.97051 0 0 0 8.48527 20.48526l127.02946 127.02947a28.97051 28.97051 0 0 0 20.48527 8.48527z" fill="#548aff"/><path d="m367.029 147.716h33.941v56.569h-33.941z" fill="#4976f2" transform="matrix(.707 -.707 .707 .707 -11.98 323.078)"/><path d="m448 368-40 40-40 8-24-24 8-40 40-40z" fill="#d1e4ff"/><path d="m344 392-52.28427 52.28427a40 40 0 0 1 -28.28427 11.71573h-184.80407a22.62739 22.62739 0 0 1 -22.62739-22.62739 22.6274 22.6274 0 0 1 6.62741-16l41.37259-41.37261-24-24-39.43147 39.43147a56.5685 56.5685 0 0 0 -16.56853 40v.00008a56.56848 56.56848 0 0 0 56.56849 56.56845h185.60813a72 72 0 0 0 50.91169-21.08831l50.91169-50.91169z" fill="#bdd1f2"/><path d="m411.716 280.402h56.569v79.196h-56.569z" fill="#ffc431" transform="matrix(.707 -.707 .707 .707 -97.401 404.853)"/><path d="m386.34338 213.65674a7.99945 7.99945 0 0 0 11.31348 0l24-24a7.99915 7.99915 0 0 0 0-11.31348l-40-40a8 8 0 0 0 -11.31348 0l-24 24a7.99915 7.99915 0 0 0 0 11.31348zm-10.34326-58.34274 28.68604 28.686-12.686 12.686-28.68607-28.686z"/><path d="m328 154.745h16v90.51h-16z" transform="matrix(.707 -.707 .707 .707 -43.009 296.167)"/><path d="m437.65686 266.34326a8 8 0 0 0 -11.31348 0l-40 40-40 40a8.0024 8.0024 0 0 0 -2.188 4.08789l-7.525 37.62512-50.57118 50.57117a31.79174 31.79174 0 0 1 -22.62744 9.37256h-184.8042a14.62758 14.62758 0 0 1 -10.34326-24.9707l39.65955-39.65955 37.62512-7.525a8.00249 8.00249 0 0 0 4.08789-2.188l18.34326-18.34326 41.85788 41.8579a36.97 36.97 0 0 0 52.28418 0l191.0293-191.0293a36.97 36.97 0 0 0 0-52.28418l-127.02976-127.0293a36.96942 36.96942 0 0 0 -52.28369 0l-191.02929 191.0293a36.97 36.97 0 0 0 0 52.28418l17.85791 17.85791-18.34327 18.34326a8.0024 8.0024 0 0 0 -2.188 4.08789l-7.525 37.62512-37.71864 37.71863a64.56838 64.56838 0 0 0 45.65674 110.2251h185.6084a79.47459 79.47459 0 0 0 56.56836-23.43164l49.19861-49.19861 37.62512-7.525a8.00249 8.00249 0 0 0 4.08789-2.188l40-40 40-40a7.99915 7.99915 0 0 0 0-11.31348zm-5.65674 16.97022 16.68653 16.68652-28.68653 28.68652-16.68652-16.68652zm-344-39.31348a20.83314 20.83314 0 0 1 6.14209-14.82861l191.0293-191.0293a20.97053 20.97053 0 0 1 29.65674 0l127.02975 127.0293a20.97111 20.97111 0 0 1 0 29.65722l-191.02926 191.0293a20.97113 20.97113 0 0 1 -29.65723 0l-127.0293-127.0293a20.83314 20.83314 0 0 1 -6.14209-14.82861zm7.36963 71.94385 16.63037-16.63037 44.68653 44.68652-16.63038 16.63037-33.42675 6.68555-17.94532-17.94531zm216.062 145.311a63.58272 63.58272 0 0 1 -45.25487 18.74515h-185.6084a48.5687 48.5687 0 0 1 -34.34326-82.91162l33.7749-33.7749 12.68653 12.68652-35.71582 35.71582a30.62725 30.62725 0 0 0 21.65673 52.28418h184.8042a47.68367 47.68367 0 0 0 33.94092-14.05908l46.62744-46.62744 12.68653 12.68652zm92.624-60.62451-33.42627 6.68555-17.94528-17.94528 6.68555-33.42627 32.63037-32.63034 44.68604 44.686zm43.94433-43.94385-16.68648-16.68649 28.68652-28.68652 16.68653 16.68652z"/></g></svg>