<svg height="512" viewBox="0 0 512 512" width="512" xmlns="http://www.w3.org/2000/svg"><g id="filled_outline" data-name="filled outline"><path d="m352 376h32v72h-32z" fill="#f78e00"/><path d="m80 24h352v352h-352z" fill="#8098ab"/><path d="m432 288h-24l-21.712-54.279v-67.442l21.712-54.279h24z" fill="#718799"/><path d="m80 288h24l21.712-54.279v-67.442l-21.712-54.279h-24z" fill="#718799"/><path d="m400 200a143.51865 143.51865 0 1 1 -5.24-38.62 143.55049 143.55049 0 0 1 5.24 38.62z" fill="#4b6275"/><g fill="#62798c"><path d="m243.34009 156.68-19.34009 11.32-69.82007-69.82a143.85986 143.85986 0 0 1 63.2-36.94l-1.3812 2.76242a59.42 59.42 0 0 0 4.79386 61.109z"/><path d="m224 232-69.82007 69.82007a143.86057 143.86057 0 0 1 -36.93993-63.20007l2.76237 1.38118a59.42 59.42 0 0 0 61.10914-4.79377l31.56842-22.54741z"/><path d="m294.62012 338.76 1.3812-2.76242a59.42 59.42 0 0 0 -4.79386-61.109l-22.54755-31.56858 19.34009-11.32 69.82007 69.82007a143.86032 143.86032 0 0 1 -63.19995 36.93993z"/><path d="m394.76 161.38-2.76239-1.38119a59.42 59.42 0 0 0 -61.10911 4.79375l-31.56843 22.54744-11.32007-19.34 69.82007-69.82a143.86 143.86 0 0 1 36.93993 63.2z"/></g><path d="m208 416h96v72h-96z" fill="#d1e4ff"/><path d="m304 448h72a8 8 0 0 0 8-8v-64h32v72a32 32 0 0 1 -32 32h-80z" fill="#ffa100"/><path d="m32 56h48v288h-48z" fill="#d1e4ff"/><path d="m432 56h48v288h-48z" fill="#d1e4ff"/><circle cx="256" cy="200" fill="#718799" r="48"/><path d="m128 376h32v72h-32z" fill="#f78e00"/><path d="m208 448h-72a8 8 0 0 1 -8-8v-64h-32v72a32 32 0 0 0 32 32h80z" fill="#ffa100"/><path d="m432.00012 16h-352a8.00008 8.00008 0 0 0 -8 8v24h-40a8.00008 8.00008 0 0 0 -8 8v288a8.00008 8.00008 0 0 0 8 8h40v24a8.00008 8.00008 0 0 0 8 8h8v64a40.04552 40.04552 0 0 0 40 40h72a8.00008 8.00008 0 0 0 8 8h96a8.00008 8.00008 0 0 0 8-8h72a40.04551 40.04551 0 0 0 40-40v-64h8a8.00008 8.00008 0 0 0 8-8v-24h40a8.00008 8.00008 0 0 0 8-8v-288a8.00008 8.00008 0 0 0 -8-8h-40v-24a8.00008 8.00008 0 0 0 -8-8zm-360 96h-32v-16h32zm0 16v16h-32v-16zm0 32v16h-32v-16zm0 32v16h-32v-16zm0 32v16h-32v-16zm0 32v16h-32v-16zm0 32v16h-32v-16zm16-168h10.584l13.01416 32.53546a152.05112 152.05112 0 0 0 0 94.92908l-13.01417 32.53546h-10.584zm128 80a40 40 0 1 1 40 40 40.04552 40.04552 0 0 1 -40-40zm84.833-33.5191 56.77344-56.7735a136.30338 136.30338 0 0 1 23.9187 37.96679 67.25211 67.25211 0 0 0 -55.28882 10.611l-21.02144 15.01553a56.161 56.161 0 0 0 -4.38187-6.81982zm-11.314-11.314a55.93738 55.93738 0 0 0 -44.61109-10.05939l-17.60327-24.64465a51.30187 51.30187 0 0 1 -4.38867-52.38525 135.84894 135.84894 0 0 1 123.37651 30.31582zm-75.23384-25.4042 15.01587 21.02221a56.15934 56.15934 0 0 0 -6.82007 4.382l-56.77344-56.7735a136.30238 136.30238 0 0 1 37.96655-23.91841 67.24758 67.24758 0 0 0 10.61109 55.2877zm-59.8916-20.0553 56.77343 56.7735a55.93812 55.93812 0 0 0 -10.05957 44.6109l-24.64354 17.60351a51.30447 51.30447 0 0 1 -52.38623 4.38855 135.84865 135.84865 0 0 1 30.31591-123.37646zm-7.79883 144.59045a67.31971 67.31971 0 0 0 39.16894-12.583l21.02149-15.01556a56.15967 56.15967 0 0 0 4.38183 6.81982l-56.77343 56.7735a136.30278 136.30278 0 0 1 -23.91724-37.96338 67.216 67.216 0 0 0 16.11841 1.96862zm75.88623-9.46478a55.93735 55.93735 0 0 0 44.61108 10.05939l17.60327 24.64465a51.30187 51.30187 0 0 1 4.38868 52.38525 135.849 135.849 0 0 1 -123.37647-30.31579zm75.23392 25.40423-15.0159-21.02221a56.16089 56.16089 0 0 0 6.82007-4.382l56.77343 56.7735a136.30611 136.30611 0 0 1 -37.96655 23.91858 67.24786 67.24786 0 0 0 -10.61105-55.28787zm59.8916 20.0553-56.77344-56.7735a55.93812 55.93812 0 0 0 10.05957-44.6109l24.64355-17.60351a51.30467 51.30467 0 0 1 52.38624-4.38855 135.84875 135.84875 0 0 1 -30.31595 123.37646zm42.7954-137.75714 13.01414-32.53546h10.584v160h-10.584l-13.01414-32.53546a152.05131 152.05131 0 0 0 0-94.92908zm39.59812 135.46454h32v16h-32zm0-16v-16h32v16zm0-32v-16h32v16zm0-32v-16h32v16zm0-32v-16h32v16zm0-32v-16h32v16zm0-32v-16h32v16zm-352-80h336v72h-16a7.99975 7.99975 0 0 0 -7.42773 5.02881l-8.95264 22.38129a151.95959 151.95959 0 0 0 -271.23926 0l-8.95263-22.38129a7.99976 7.99976 0 0 0 -7.42774-5.02881h-16zm-16 32v16h-32v-16zm-32 272v-16h32v16zm88 136a24.0275 24.0275 0 0 1 -24-24v-64h16v56a16.01833 16.01833 0 0 0 16 16h64v16zm8-32v-56h16v56zm160 40h-80v-56h16v24h16v-24h16v24h16v-24h16zm-88-72a8.00008 8.00008 0 0 0 -8 8v24h-32v-56h176v56h-32v-24a8.00008 8.00008 0 0 0 -8-8zm168-24v56h-16v-56zm32 64a24.0275 24.0275 0 0 1 -24 24h-72v-16h64a16.01833 16.01833 0 0 0 16-16v-56h16zm16-80h-336v-72h16a7.99976 7.99976 0 0 0 7.42774-5.02881l8.95263-22.38135a151.95954 151.95954 0 0 0 271.23926 0l8.95264 22.38135a7.99975 7.99975 0 0 0 7.42773 5.02881h16zm16-32v-16h32v16zm32-272v16h-32v-16z"/><circle cx="112" cy="56" r="8"/><circle cx="136" cy="56" r="8"/><circle cx="112" cy="80" r="8"/><circle cx="112" cy="344" r="8"/><circle cx="112" cy="320" r="8"/><circle cx="136" cy="344" r="8"/><circle cx="400" cy="344" r="8"/><circle cx="376" cy="344" r="8"/><circle cx="400" cy="320" r="8"/><circle cx="400" cy="56" r="8"/><circle cx="400" cy="80" r="8"/><circle cx="376" cy="56" r="8"/></g></svg>