<svg height="512" viewBox="0 0 512 512" width="512" xmlns="http://www.w3.org/2000/svg"><g id="filled_outline" data-name="filled outline"><path d="m488 128-100 100-111.61-104.39 99.61-99.61 52.2 48.48 11.74 10.9z" fill="#ffc431"/><path d="m171.3137 476.6863a38.62739 38.62739 0 0 1 -27.3137 11.3137 38.62739 38.62739 0 0 1 -27.31368-11.3137l-81.37262-81.3726a38.62739 38.62739 0 0 1 -11.3137-27.3137 38.62739 38.62739 0 0 1 11.3137-27.3137l236.6863-236.6863 32.22 12.08249a156.6928 156.6928 0 0 1 55.78 35.91751 156.6928 156.6928 0 0 1 35.91749 55.78l12.08251 32.22z" fill="#548aff"/><path d="m208.48527 128.48527 169.37261 169.37261a48.28422 48.28422 0 0 1 14.14212 34.14212 48.28422 48.28422 0 0 0 14.14212 34.1421l25.37261 25.37261a28.97051 28.97051 0 0 1 8.48527 20.48529 28.97051 28.97051 0 0 1 -8.48527 20.48526l-47.02946 47.02946a28.97051 28.97051 0 0 1 -20.48527 8.48528 28.97051 28.97051 0 0 1 -20.48526-8.48527l-25.37261-25.37261a48.28422 48.28422 0 0 0 -34.14213-14.14212 48.28422 48.28422 0 0 1 -34.1421-14.14212l-169.37263-169.37261a28.97051 28.97051 0 0 1 -8.48527-20.48527 28.97051 28.97051 0 0 1 8.48527-20.48526l87.02946-87.02946a28.97051 28.97051 0 0 1 20.48527-8.48528 28.97051 28.97051 0 0 1 20.48527 8.48527z" fill="#d1e4ff"/><circle cx="232" cy="280" fill="#548aff" r="48"/><path d="m111.0304 482.34375a46.62744 46.62744 0 0 0 65.94043-.00049l59.02929-59.0293 8.20117 8.20118a55.9165 55.9165 0 0 0 39.79883 16.48486 40.02221 40.02221 0 0 1 28.48535 11.79883l25.373 25.373a36.9706 36.9706 0 0 0 52.28418-.00049l47.02835-47.02876a36.9706 36.9706 0 0 0 .001-52.28467l-25.37305-25.373a40.02027 40.02027 0 0 1 -11.79883-28.48491 55.91409 55.91409 0 0 0 -16.48535-39.79883l-8.20093-8.20093 38.34351-38.3435a8.00059 8.00059 0 0 0 1.833-8.46582l-6.91822-18.449 85.08521-85.08514a7.99907 7.99907 0 0 0 -.21387-11.519l-112-104a7.99973 7.99973 0 0 0 -11.10058.20556l-82.90284 82.90283-12.63134-4.73681a8.00371 8.00371 0 0 0 -8.46582 1.834l-38.34277 38.34264-13.85742-13.85739-.001-.00049a36.9706 36.9706 0 0 0 -52.28418.00049l-87.0283 87.02881a36.97059 36.97059 0 0 0 -.001 52.28467l13.85794 13.85791-59.02881 59.0293a46.62743 46.62743 0 0 0 -.001 65.94091zm291.3416-280.02948a163.31983 163.31983 0 0 0 -31.199-50.17327l63.10694-63.10693 42.19287 39.17932zm-26.16582-167.20636 46.34082 43.03119-62.68775 62.6879a163.43531 163.43531 0 0 0 -52.83081-32.23517l-3.13183-1.17444zm-102.19141 78.19141 27.39648 10.27392a148.69822 148.69822 0 0 1 87.01661 87.01612l10.27246 27.39648-34.70044 34.70044-124.68579-124.68622zm-194.01465 122.70068a20.83278 20.83278 0 0 1 6.14258-14.82861l87.0283-87.02881a20.97053 20.97053 0 0 1 29.65723-.00049l169.373 169.373a40.02027 40.02027 0 0 1 11.79889 28.48491 55.91409 55.91409 0 0 0 16.48535 39.79883l25.373 25.373a20.97052 20.97052 0 0 1 -.001 29.65673l-47.02832 47.02881a20.97052 20.97052 0 0 1 -29.65722.00049l-25.37305-25.373a55.9165 55.9165 0 0 0 -39.79876-16.48486 40.02224 40.02224 0 0 1 -28.48535-11.79883l-169.373-169.373a20.83394 20.83394 0 0 1 -6.14165-14.82817zm-39.02929 110.34326 59.02929-59.0293 124.68604 124.68604-59.02881 59.0293a30.6274 30.6274 0 0 1 -43.31348.00049l-81.374-81.37354a30.62738 30.62738 0 0 1 .001-43.313z"/><path d="m364.686 80h22.627v16h-22.627z" transform="matrix(.707 -.707 .707 .707 47.911 291.661)"/><path d="m412.686 128h22.627v16h-22.627z" transform="matrix(.707 -.707 .707 .707 28.029 339.664)"/><path d="m288.00012 280a56 56 0 1 0 -56 56 56.06322 56.06322 0 0 0 56-56zm-56 40a40 40 0 1 1 40-40 40.04552 40.04552 0 0 1 -40 40z"/><path d="m116.402 196h79.196v16h-79.196z" transform="matrix(.707 -.707 .707 .707 -98.558 170.059)"/></g></svg>