<svg height="512" viewBox="0 0 512 512" width="512" xmlns="http://www.w3.org/2000/svg"><g id="filled_outline" data-name="filled outline"><path d="m63.667 120.236h384.666v271.529h-384.666z" fill="#8098ab" transform="matrix(.707 -.707 .707 .707 -106.039 256)"/><path d="m296 72-73.53906 70.46088 64.44824 64.44818-158.90918 145.09094 64 64a33.6062 33.6062 0 0 1 47.76074.23694l.23926.24426 129.53906-126.94214 70.46094-73.53906z" fill="#62798c"/><path d="m271.843 288.157-47.843 47.843 24 24 49.32-49.32z" fill="#556c80"/><circle cx="296" cy="216" fill="#e8f2ff" r="104"/><path d="m192 288v64l-32 32-64-64a33.94108 33.94108 0 0 0 0-48l56-56 53.25926 53.25926z" fill="#ffc431"/><circle cx="296" cy="216" fill="#c8dbf7" r="32"/><path d="m137.345 272.941 112.044-15.686 4.437 15.373-103.171 46.431z" fill="#ffd873"/><circle cx="144" cy="296" fill="#ffe28f" r="24"/><path d="m210.3429 493.65674a8.00062 8.00062 0 0 0 11.31445 0l272-272a8 8 0 0 0 0-11.31348l-192-192a8.00121 8.00121 0 0 0 -11.31445 0l-272 272a8 8 0 0 0 0 11.31348zm85.65722-458.34326 180.68653 180.68652-260.68653 260.68652-180.68652-180.68652z"/><path d="m296.00012 256a40 40 0 1 0 -40-40 40.04551 40.04551 0 0 0 40 40zm0-64a24 24 0 1 1 -24 24 24.0275 24.0275 0 0 1 24-24z"/><circle cx="160" cy="344" r="8"/><path d="m215.89075 414.15723a25.42245 25.42245 0 0 1 18.15625 7.6792l.23925.24414a8.00083 8.00083 0 0 0 11.31348.11425l129.53906-126.94189-.00048-.00049c.019-.01916.03906-.03747.0581-.05664.04053-.04028.0791-.08179.11914-.12207l.00781-.00806c.97022-.97338 1.9126-1.964 2.83985-2.96386l67.61328-70.56714a7.99978 7.99978 0 0 0 0-11.06934l-67.61328-70.56714c-.92725-.99987-1.86963-1.99054-2.83985-2.96392l-.00781-.008v.00006c-.04-.04034-.07861-.08179-.11914-.12213s-.082-.0791-.12207-.11939v-.00024l-.02783-.02649q-1.47876-1.47372-3.00635-2.88049l-70.50586-67.554a7.99856 7.99856 0 0 0 -11.06836 0l-70.5061 67.554q-1.52345 1.41156-3.00635 2.88049l-.02759.02649.00025.00024c-.04029.04029-.082.079-.12232.11939a112.21707 112.21707 0 0 0 -30.45874 102.22687l-28.68774-28.68781a8.00121 8.00121 0 0 0 -11.31445 0l-56 56a8 8 0 0 0 0 11.31348 25.93983 25.93983 0 0 1 0 36.68652 8 8 0 0 0 0 11.31348l64 64 32 32a8.00062 8.00062 0 0 0 11.31445 0 25.41955 25.41955 0 0 1 18.10254-7.5c.04297 0 .08691 0 .13086.00049zm213.03025-198.15723-23.73047 24.76709a112.87943 112.87943 0 0 0 0-49.53418zm-132.92088-132.92041 24.66065 23.62866a113.63095 113.63095 0 0 0 -49.32129 0zm-94.98437 118.94922a95.19647 95.19647 0 0 1 27.07007-53.87732l2.90869-2.787a95.98264 95.98264 0 0 1 130.01147 0l2.88037 2.76026.26709.27826a96.09828 96.09828 0 0 1 0 135.1939l-.29687.30945-.14209.13941a96.0032 96.0032 0 0 1 -128.9187 5.91919l22.31372-10.04212a8.00094 8.00094 0 0 0 4.40332-9.51416l-4.4375-15.37256a7.99952 7.99952 0 0 0 -8.7959-5.7041l-40.03442 5.60498a97.012 97.012 0 0 1 -7.22925-52.90819zm70.36914 123.27246-23.38477 23.38473-12.68652-12.686 16.86963-16.86926a110.70882 110.70882 0 0 0 19.20166 6.17053zm-95.51172-26.36462a32.1147 32.1147 0 0 0 -6.46729-22.40564l74.2212-10.39136.58886 2.04zm-27.85059 12.53381a15.98426 15.98426 0 0 1 -8.86206-30.70508l5.3982-.75586a16.00062 16.00062 0 0 1 14.81347 11.55348v.00049a15.98393 15.98393 0 0 1 -6.40088 17.67993zm3.97754-84.1565 31.13819 31.13804-39.62061 5.547a32.16691 32.16691 0 0 0 -8.3916 1.25635 31.7899 31.7899 0 0 0 -19.14063 15.2793 32.21939 32.21939 0 0 0 -2.88037 7.09839 41.43606 41.43606 0 0 0 -6.32666-15.09742zm-45.22168 92.1504a41.44269 41.44269 0 0 0 6.33423-15.13331c.04883.18067.09033.36219.14233.54249a32.04671 32.04671 0 0 0 30.69922 23.14111 32.265 32.265 0 0 0 16.69-4.67835l23.356-10.51123v35.861l-24 24zm85.76074 85.76123-21.22509-21.22559 26.34326-26.34326a8.00035 8.00035 0 0 0 2.34277-5.65674v-46.37549l18.814-8.467a112.60072 112.60072 0 0 0 18.46188 14.25277l-18.9331 18.933a8 8 0 0 0 0 11.31348l24 24a8.00062 8.00062 0 0 0 11.31445 0l37.75635-37.75611c1.52392.06092 3.05224.09937 4.58642.09937a112.83625 112.83625 0 0 0 25.93067-3.00806l-82.31543 80.66529a41.68014 41.68014 0 0 0 -47.07618-.43164z"/><circle cx="72" cy="296" r="8"/><circle cx="216" cy="440" r="8"/></g></svg>