<?xml version="1.0"?>
<svg xmlns="http://www.w3.org/2000/svg" viewBox="0 0 512 512" width="512" height="512"><g id="filled_outline" data-name="filled outline"><path d="M104,96a8,8,0,0,1,8-8h48l93.8059,65.66413,31.57,23.25318,62.05207,41.368,14.85714-24.76191-59.63865-39.75909-24.81493-21.7271L168,56H104A32,32,0,0,0,72,88V488h32Z" style="fill:#556c80"/><path d="M318.6383,122.383l29.19734-51.09535A31.60645,31.60645,0,0,0,352,55.60646v0A31.60642,31.60642,0,0,0,320.39358,24H104A64,64,0,0,0,40,88V488H72V88a32,32,0,0,1,32-32H313.73524A6.26476,6.26476,0,0,1,320,62.26476h0a6.26479,6.26479,0,0,1-.89277,3.22319l-25.22487,42.04146Z" style="fill:#62798c"/><path d="M280.23156,368l-.23-31.6893A32,32,0,0,1,312,304h16a32,32,0,0,1,32,32v32Z" style="fill:#8098ab"/><polygon points="136 320 184 320 208 304 208 272 184 248 136 248 136 320" style="fill:#4976f2"/><path d="M184,144v88l-5.33008,8L152,280v31.46a32.54582,32.54582,0,0,1-63.41992,10.29L80,296,40,256V240A119.90936,119.90936,0,0,1,160,120a24.002,24.002,0,0,1,24,24Z" style="fill:#548aff"/><polygon points="216 144 256 144 288 104 328 128 280 208 216 208 216 144" style="fill:#8098ab"/><path d="M208,336h16a40,40,0,0,0,40-40V280a40,40,0,0,0-40-40H208Z" style="fill:#8098ab"/><path d="M480,352A119.90936,119.90936,0,0,1,360,472H344l-40-40-25.75-8.58008A32.54567,32.54567,0,0,1,288.54,360H320l40-26.67,8-5.33h88a24.002,24.002,0,0,1,24,24Z" style="fill:#548aff"/><rect x="400" y="279.99872" width="32" height="64" transform="translate(104.00128 727.99872) rotate(-90)" style="fill:#ffc431"/><polygon points="384 295.999 384 255.999 344 223.999 368 183.999 448 231.999 448 295.999 384 295.999" style="fill:#8098ab"/><rect x="183.99872" y="144" width="32" height="64" transform="translate(399.99743 352) rotate(-180)" style="fill:#ffc431"/><circle cx="120" cy="312" r="8"/><circle cx="304" cy="392" r="8"/><path d="M40,496h64a7.99977,7.99977,0,0,0,8-8V351.3064A40.50947,40.50947,0,0,0,156.45679,328H184a7.996,7.996,0,0,0,4.4375-1.34375L200,318.948V336a7.99977,7.99977,0,0,0,8,8h16a48.05436,48.05436,0,0,0,48-48V280a48.05436,48.05436,0,0,0-48-48H208a7.99977,7.99977,0,0,0-8,8v12.68652l-10.34326-10.34326a7.98972,7.98972,0,0,0-1.97632-1.44189l2.97583-4.46387A7.996,7.996,0,0,0,192,232V216h88a8.0001,8.0001,0,0,0,6.85986-3.88428l10.54053-17.56762,39.29785,26.1986a7.99557,7.99557,0,0,0,2.3042,9.49891L376,259.84375V320h-8a7.98191,7.98191,0,0,0-3.07373.63391A40.059,40.059,0,0,0,328,296H312a39.9999,39.9999,0,0,0-39.998,40.38818l.18506,19.07032a40.53449,40.53449,0,0,0,3.53565,75.54834l23.95605,7.98535,38.66455,38.66455A7.99877,7.99877,0,0,0,344,480h16A128.14477,128.14477,0,0,0,488,352a32.036,32.036,0,0,0-32-32V231.99854a8.00012,8.00012,0,0,0-3.88428-6.85987l-80-48a7.998,7.998,0,0,0-10.97558,2.74414l-1.39832,2.33057-39.24328-26.16223,14.36132-23.93543a7.999,7.999,0,0,0-2.74414-10.97558l-2.646-1.58765,25.31152-44.29565A39.60607,39.60607,0,0,0,320.39355,16H104A72.08124,72.08124,0,0,0,32,88V488A7.99977,7.99977,0,0,0,40,496Zm8-220.68652,16,16V480H48ZM96,480H80V321.29785l.99316,2.97949A40.48133,40.48133,0,0,0,96,344.53491ZM216,248h8a32.036,32.036,0,0,1,32,32v16a32.036,32.036,0,0,1-32,32h-8V248Zm-35.31348,8L200,275.31348v24.40527L181.57764,312H159.98621c.00244-.18188.01379-.36157.01379-.54395V282.42236L177.61475,256ZM291.09229,96.63013a7.995,7.995,0,0,0-9.33936,2.37231l-13.39612,16.74512L193.61035,64H310.67041ZM165.50073,64l92.83679,64.27161L252.15479,136h-9.63306L164.58789,81.44629A7.99931,7.99931,0,0,0,160,80H112A16.01833,16.01833,0,0,0,96,96v33.18262a128.56,128.56,0,0,0-16,10.97656V88a24.02687,24.02687,0,0,1,24-24ZM192,152h16v16H192ZM112,96h45.478l57.14306,40H190.98743A32.05728,32.05728,0,0,0,160,112a127.31241,127.31241,0,0,0-48,9.3479Zm96,104H192V184h16Zm67.4707,0H224V152h32a7.99951,7.99951,0,0,0,6.24707-3.00244L289.87939,114.457l27.14454,16.28711ZM440,303.99854v16H424v-16Zm-32,16H392v-16h16ZM288.001,336.23291A24.00075,24.00075,0,0,1,312,312h16a24.03813,24.03813,0,0,1,23.13489,17.62866L317.57764,352H288.544c-.13074,0-.2594.00867-.3899.00989ZM472,352a112.16869,112.16869,0,0,1-96,110.85229V427.31348l37.65674-37.65674-11.31348-11.31348-40,40A7.99877,7.99877,0,0,0,360,424v40H347.31348l-37.65674-37.65674a7.9934,7.9934,0,0,0-3.127-1.93262l-25.74756-8.58252A24.54384,24.54384,0,0,1,288.544,368H320a7.996,7.996,0,0,0,4.4375-1.34375L360,342.94824V372.686l-21.65674,21.65722,11.31348,11.31348,24-24A7.99877,7.99877,0,0,0,376,376V336h80A16.01833,16.01833,0,0,1,472,352ZM370.74414,194.97461,440,236.52783v51.47071H392v-32a7.99953,7.99953,0,0,0-3.00244-6.24708L354.457,222.11914Zm-19.24341.97388-6.616,11.02673L305.64148,180.813l6.61609-11.02674ZM48,88a56.06353,56.06353,0,0,1,56-56H320.39355a23.60626,23.60626,0,0,1,20.4961,35.31836l-25.14282,44.00037-10.88868-6.53309,21.10962-35.1831A14.26446,14.26446,0,0,0,313.73535,48H104A40.04521,40.04521,0,0,0,64,88v67.43579a128.6207,128.6207,0,0,0-16,22.65772Zm0,152H88a7.99877,7.99877,0,0,0,5.65674-2.34326l40-40-11.31348-11.31348L84.68652,224H49.14771A112.16869,112.16869,0,0,1,160,128a16.01833,16.01833,0,0,1,16,16v80H136a7.99877,7.99877,0,0,0-5.65674,2.34326l-24,24,11.31348,11.31348L139.314,240h29.7378l-23.708,35.5625A7.996,7.996,0,0,0,144,280v31.45605a24.54384,24.54384,0,0,1-47.82812,7.76172l-8.58252-25.74756a7.9934,7.9934,0,0,0-1.93262-3.127L48,252.68652Z"/></g></svg>
