<svg height="512" viewBox="0 0 512 512" width="512" xmlns="http://www.w3.org/2000/svg"><g id="filled_outline" data-name="filled outline"><rect fill="#718799" height="64" rx="32" width="464" x="24" y="96"/><circle cx="56" cy="128" fill="#8098ab" r="32"/><rect fill="#62798c" height="256" rx="24" width="464" x="24" y="160"/><rect fill="#8098ab" height="192" rx="8" width="400" x="56" y="192"/><path d="m496.00012 128a40.04551 40.04551 0 0 0 -40-40h-400a39.97528 39.97528 0 0 0 -26.50757 69.91992 31.97432 31.97432 0 0 0 -13.49243 26.08008v208a32.03635 32.03635 0 0 0 32 32h416a32.03635 32.03635 0 0 0 32-32v-208a31.97429 31.97429 0 0 0 -13.49243-26.08008 39.90605 39.90605 0 0 0 13.49243-29.91992zm-16 0a24.0275 24.0275 0 0 1 -24 24h-368.02197a39.83455 39.83455 0 0 0 7.217-16h32.80493v-16h-32.80489a39.83455 39.83455 0 0 0 -7.217-16h368.022a24.0275 24.0275 0 0 1 23.99993 24zm-424-24a24 24 0 1 1 -24 24 24.0275 24.0275 0 0 1 24-24zm408 64a16.01833 16.01833 0 0 1 16 16v208a16.01833 16.01833 0 0 1 -16 16h-416a16.01833 16.01833 0 0 1 -16-16v-208a16.01833 16.01833 0 0 1 16-16z"/><path d="m48.00012 200v176a16.01833 16.01833 0 0 0 16 16h384a16.01833 16.01833 0 0 0 16-16v-176a16.01833 16.01833 0 0 0 -16-16h-384a16.01833 16.01833 0 0 0 -16 16zm16 144h96v32h-96zm144-96v32h-56v-32zm48 48v32h-32v-32zm16 0h32v32h-32zm48 0h32v32h-32zm48 0h32v32h-32zm0-16v-32h32v32zm-16 0h-32v-32h32zm-48 0h-32v-32h32zm-48 0h-32v-32h32zm-48 16v32h-56v-32zm0 48v32h-32v-32zm16 0h128v32h-128zm144 0h32v32h-32zm48-48h32.00537l.00171 32h-32.00708zm0-16v-32h32.00269l.00171 32zm-48-48v-32h32v32zm-16 0h-32v-32h32zm-48 0h-32v-32h32zm-48 0h-32v-32h32zm-48 0h-32v-32h32zm-48 0h-32v-32h32zm-24 16v32h-72v-32zm0 48v32h-72v-32zm312 80h-32v-32h32.00806l.00171 31.99951zm.00171-144h-32.00171v-32h32zm-336.00171-32v32h-48v-32z"/><path d="m144 120h16v16h-16z"/></g></svg>