<svg height="512" viewBox="0 0 512 512" width="512" xmlns="http://www.w3.org/2000/svg"><g id="filled_outline" data-name="filled outline"><path d="m440 384v-272a16 16 0 0 0 -16-16h-336a16 16 0 0 0 -16 16v272z" fill="#486be0"/><path d="m376.00025 288.00018-70.40025-52.80018a95.9999 95.9999 0 0 0 -57.6-19.2v96h128z" fill="#4976f2"/><path d="m24 384h464v16a95.26659 95.26659 0 0 1 -52.84436 16h-358.31125a95.26662 95.26662 0 0 1 -52.84439-16z" fill="#d1e4ff"/><path d="m248 384v-240h-176v240z" fill="#ffc431"/><path d="m440 216a104.23825 104.23825 0 0 0 -69.7317 26.75856l-20.53649 18.48285a104.23835 104.23835 0 0 1 -69.73181 26.75859h-32v96h192z" fill="#548aff"/><path d="m19.56262 406.65625a102.94065 102.94065 0 0 0 57.28223 17.34375h358.31055a102.94061 102.94061 0 0 0 57.28222-17.34375 7.99943 7.99943 0 0 0 3.5625-6.65625v-16a8.00008 8.00008 0 0 0 -8-8h-40l-.00012-264a24.02718 24.02718 0 0 0 -24-24h-336a24.02718 24.02718 0 0 0 -24 24l.00012 264h-40a8.00008 8.00008 0 0 0 -8 8v16a7.99945 7.99945 0 0 0 3.5625 6.65625zm236.4375-30.65625v-80h24a112.05882 112.05882 0 0 0 75.083-28.8125l20.53711-18.48242a96.05628 96.05628 0 0 1 56.37988-24.35767v151.65259zm-16-224v24h-56v-24zm-56 40h56v24h-56zm0 40h56v24h-56zm0 40h56v24h-56zm0 40h56v24h-56zm72-87.61475a88.62317 88.62317 0 0 1 44.79981 17.21485l30.998 23.24817a96.05189 96.05189 0 0 1 -51.79781 15.15173h-24zm-72 127.61475h56v24h-56zm-96.00012-248h336a8.00917 8.00917 0 0 1 8 8l.00012 96.28613a112.03355 112.03355 0 0 0 -67.083 28.52637l-19.92529 17.93164-34.59228-25.94385a104.74255 104.74255 0 0 0 -54.39943-20.47929v-64.321a8.00008 8.00008 0 0 0 -8-8h-168l-.00012-24a8.00917 8.00917 0 0 1 8-8zm-7.99988 48h88v224h-88zm-48 240h448v3.59766a86.95908 86.95908 0 0 1 -44.84472 12.40234h-358.31055a86.95915 86.95915 0 0 1 -44.84473-12.40234z"/><path d="m96 200h40v16h-40z"/><path d="m96 232h24v16h-24z"/><path d="m96 168h24v16h-24z"/><path d="m96 264h40v16h-40z"/><path d="m96 296h24v16h-24z"/><path d="m96 328h40v16h-40z"/></g></svg>