<svg height="512" viewBox="0 0 512 512" width="512" xmlns="http://www.w3.org/2000/svg"><g id="filled_outline" data-name="filled outline"><path d="m24 32h456v288h-456z" fill="#486be0"/><path d="m24 80h176v240h-176z" fill="#ffc431"/><path d="m200 152h32a96 96 0 0 1 57.6 19.2l102.4 76.8h-192z" fill="#4976f2"/><path d="m192 320h128v104h-128z" fill="#d1e4ff"/><path d="m192 424h128v32h-128z" fill="#e8f2ff"/><path d="m480 152h-56a104.23825 104.23825 0 0 0 -69.7317 26.75856l-20.53649 18.48285a104.23835 104.23835 0 0 1 -69.73181 26.75859h-64v96h280z" fill="#548aff"/><path d="m16.00012 32v288a8.00009 8.00009 0 0 0 8 8h160v128a8.00009 8.00009 0 0 0 8 8h12.686l5.65722 5.65723a8.00035 8.00035 0 0 0 5.65678 2.34277h16a8.00035 8.00035 0 0 0 5.65674-2.34277l5.65723-5.65723h25.37207l5.65722 5.65723a8.00035 8.00035 0 0 0 5.65674 2.34277h16a8.00035 8.00035 0 0 0 5.65674-2.34277l5.65723-5.65723h12.686a8.00008 8.00008 0 0 0 8-8v-128h152a8.00008 8.00008 0 0 0 8-8v-288a8.00008 8.00008 0 0 0 -8-8h-456a8.00009 8.00009 0 0 0 -7.99997 8zm16 56h88v224h-88zm104 224v-24h56v24zm56-40h-56v-24h56zm-56-40v-24h56v24zm56-40h-56v-24h56zm0-40h-56v-24h56zm16 8h24a88.5524 88.5524 0 0 1 52.8003 17.60059l30.99743 23.248a96.053 96.053 0 0 1 -51.79773 15.15141h-56zm-16-48h-56v-24h56zm120 336h-112v-16h112zm0-32h-112v-88h48v40a8 8 0 0 0 16 0v-40h48zm-104-104v-80h56a112.06467 112.06467 0 0 0 75.0835-28.8125l20.53613-18.48242a96.08891 96.08891 0 0 1 64.38037-24.70508h48v152zm264-272v104h-48a112.06464 112.06464 0 0 0 -75.08349 28.8125l-19.92408 17.93164-34.59255-25.94434a104.65073 104.65073 0 0 0 -62.39988-20.7998h-24v-64a8.00008 8.00008 0 0 0 -8-8h-168v-32z"/><path d="m48 136h40v16h-40z"/><path d="m48 168h24v16h-24z"/><path d="m48 104h24v16h-24z"/><path d="m48 200h40v16h-40z"/><path d="m48 232h24v16h-24z"/><path d="m48 264h40v16h-40z"/></g></svg>