<?xml version="1.0"?>
<svg xmlns="http://www.w3.org/2000/svg" viewBox="0 0 512 512" width="512" height="512"><g id="filled_outline" data-name="filled outline"><path d="M408,110.05005V356A131.99505,131.99505,0,0,1,196.80005,461.6001L192,458l-78.4-58.8A24.012,24.012,0,0,1,104,380V265.93994a24.01064,24.01064,0,0,1,7.03-16.97L160,200V160l32-32V55.31006a28.6086,28.6086,0,0,1,36.93994-27.37012L296,48.3501,312,53.22l69.58008,21.17017A37.25618,37.25618,0,0,1,408,110.05005Z" style="fill:#8098ab"/><path d="M192,128V458l-78.4-58.8A24.012,24.012,0,0,1,104,380V265.93994a24.01064,24.01064,0,0,1,7.03-16.97L160,200V160Z" style="fill:#718799"/><rect x="152" y="248" width="40" height="80" style="fill:#ffc431"/><rect x="280" y="112" width="48" height="64" style="fill:#62798c"/><rect x="288" y="216" width="32" height="48" rx="8" style="fill:#08d175"/><path d="M370.65,448a131.98,131.98,0,0,1-173.85,13.6001L192,458l-78.4-58.8A24.012,24.012,0,0,1,104,380V352l88,62.12012,39.7,28.02A32.02968,32.02968,0,0,0,250.15991,448Z" style="fill:#62798c"/><path d="M192,414.12012V458l-78.4-58.8A24.012,24.012,0,0,1,104,380V352Z" style="fill:#556c80"/><path d="M383.91272,66.74121,231.27405,20.28613a36.61438,36.61438,0,0,0-47.27393,35.02735v69.373l-29.65674,29.65625A8.0008,8.0008,0,0,0,152.00012,160v36.68652l-46.62744,46.627a31.79123,31.79123,0,0,0-9.37256,22.62793V380a32.152,32.152,0,0,0,12.8003,25.60059L192.00012,468a140.87983,140.87983,0,0,0,84,28c77.19629,0,140-62.80371,140-140V110.04785a45.2702,45.2702,0,0,0-32.0874-43.30664ZM398.49817,100.793a29.2113,29.2113,0,0,1,1.50195,9.25488v93.00806l-64-32V112a8.00008,8.00008,0,0,0-8-8h-16V61.57935L379.254,82.04785A29.314,29.314,0,0,1,398.49817,100.793ZM320.00012,120v48h-32V120ZM209.17981,38.16211a20.53389,20.53389,0,0,1,17.436-2.56934l69.38428,21.11695V104h-16a8.00009,8.00009,0,0,0-8,8v58.84839l-72,32.72729V55.31348A20.57154,20.57154,0,0,1,209.17981,38.16211ZM184.00012,280h-24V256h24Zm-24,16h24v24h-24Zm41.59961,159.19922L118.4,392.7998A16.07482,16.07482,0,0,1,112.00012,380V367.43945L227.089,448.67773A39.79156,39.79156,0,0,0,250.15637,456h99.07471a123.33219,123.33219,0,0,1-73.231,24A124.776,124.776,0,0,1,201.59973,455.19922ZM367.12634,440h-116.97a23.87528,23.87528,0,0,1-13.84033-4.39355l-124.31592-87.752V265.94141a15.89423,15.89423,0,0,1,4.686-11.31348l48.9707-48.9707A8.00076,8.00076,0,0,0,168.00012,200V163.31348l16-16V240h-32a8.00009,8.00009,0,0,0-8,8v80a8.00009,8.00009,0,0,0,8,8h32v40h16V221.15161L281.73376,184h44.37818l73.88818,36.94409V356A123.52585,123.52585,0,0,1,367.12634,440Z"/><path d="M312.00012,208h-16a16.01833,16.01833,0,0,0-16,16v32a16.01833,16.01833,0,0,0,16,16h16a16.01833,16.01833,0,0,0,16-16V224A16.01833,16.01833,0,0,0,312.00012,208Zm0,48h-16l-.01025-32h16.01025Z"/></g></svg>
