<svg height="512" viewBox="0 0 512 512" width="512" xmlns="http://www.w3.org/2000/svg"><g id="filled_outline" data-name="filled outline"><path d="m344 392-52.28427 52.28427a40 40 0 0 1 -28.28427 11.71573h-184.80407a22.62739 22.62739 0 0 1 -22.62739-22.62739 22.6274 22.6274 0 0 1 6.62741-16l75.56744-75.56744-22.17766-25.82234-75.44866 75.44864a56.5685 56.5685 0 0 0 -16.56853 40v.00008a56.56848 56.56848 0 0 0 56.56849 56.56845h185.60813a72 72 0 0 0 50.91169-21.08831l50.91169-50.91169z" fill="#718799"/><path d="m432 200-39.3 40.7-168.10991 174.11006a23.9903 23.9903 0 0 1 -33.85009.67994l-149.01-142.53a23.99485 23.99485 0 0 1 -.37988-34.31006l174.64988-174.64994 40-40 64 64 8 32 32 8z" fill="#548aff"/><path d="m432 200-39.3 40.7-176.7-176.7 40-40 48 48 24 48 40 16z" fill="#4976f2"/><path d="m448 368-40 40-40 8-24-24 8-40 40-40z" fill="#8098ab"/><path d="m411.716 280.402h56.569v79.196h-56.569z" fill="#ffc431" transform="matrix(.707 -.707 .707 .707 -97.401 404.853)"/><path d="m280.3999 88.3999 79.2002 79.2002c37.02368-3.1377 65.0935-37.40625 64.3999-71.6001-3.52319-92.6582-132.626-95.32959-143.6001-7.6001zm71.6001 31.6001a24 24 0 1 1 24-24 23.99994 23.99994 0 0 1 -24 24z" fill="#d1e4ff"/><path d="m437.65735 266.34277a8.003 8.003 0 0 0 -11.31445 0l-40 40-40 40a8.00744 8.00744 0 0 0 -2.1875 4.08789l-7.52491 37.62452-50.57177 50.57182a31.7854 31.7854 0 0 1 -22.627 9.373h-184.80464a14.62689 14.62689 0 0 1 -10.34278-24.96973l58.0625-58.0625 58.86035 56.30176a32.06765 32.06765 0 0 0 45.14063-.89844l207.40722-214.81445a8.00052 8.00052 0 0 0 -.09765-11.21387l-35.7583-35.7583a80.03625 80.03625 0 1 0 -112.4834-112.4834l-27.7583-27.7583a8.00387 8.00387 0 0 0 -11.31445 0l-214.64844 214.64844a32.00054 32.00054 0 0 0 .50879 45.75195l54.04443 51.69484-55.33643 55.33641a64.56907 64.56907 0 0 0 45.65723 110.22559h185.6084a79.47771 79.47771 0 0 0 56.56836-23.43066l49.19976-49.19971 37.62451-7.5249a8.00752 8.00752 0 0 0 4.08789-2.1875l40-40 40-40a8.00122 8.00122 0 0 0 0-11.31446zm-5.65723 16.97071 16.686 16.686-28.686 28.686-16.68554-16.68548zm-80-251.31348a64.00328 64.00328 0 0 1 10.46 127.14551l-73.60551-73.60551a63.88023 63.88023 0 0 1 63.14551-53.54zm-96 3.31348 24.573 24.57373a79.4105 79.4105 0 0 0 -5.00171 12.36963l-13.91406-13.91407-11.31445 11.31446 136 136 11.31445-11.31446-21.91406-21.91406a79.41984 79.41984 0 0 0 12.36963-5.00171l32.67236 32.67163-28.18286 29.18921-165.28833-165.28833zm-213.67676 220.4834a15.87963 15.87963 0 0 1 4.68555-11.49122l168.99072-168.99166 165.48682 165.48678-162.64845 168.45703a16.03288 16.03288 0 0 1 -22.57129.44922l-149.00389-142.52637a15.87868 15.87868 0 0 1 -4.93946-11.38378zm269.10743 205.458a63.578 63.578 0 0 1 -45.25391 18.74512h-185.6084a48.568 48.568 0 0 1 -34.34277-82.91113l55.58764-55.58765 12.96753 12.40357-57.811 57.811a30.62794 30.62794 0 0 0 21.6572 52.28421h184.80468a47.68919 47.68919 0 0 0 33.94141-14.05859l46.62695-46.627 12.68555 12.68559zm92.625-60.624-33.42579 6.68455-17.94531-17.94531 6.68457-33.42578 32.63086-32.63086 44.68653 44.68652zm43.94433-43.94531-16.68554-16.68557 28.686-28.686 16.68607 16.686z"/><path d="m352.00012 128a32 32 0 1 0 -32-32 32.03667 32.03667 0 0 0 32 32zm0-48a16 16 0 1 1 -16 16 16.01833 16.01833 0 0 1 16-16z"/></g></svg>