<svg height="512" viewBox="0 0 512 512" width="512" xmlns="http://www.w3.org/2000/svg"><g id="filled_outline" data-name="filled outline"><path d="m488 201.02a36.9332 36.9332 0 0 1 -10.43018 25.73l-242.48974 249.83984a37.613 37.613 0 0 1 -54.18994-.23l-146.15014-153.09984a38.84647 38.84647 0 0 1 1.06006-54.69995l240.66967-233.38012a39.62762 39.62762 0 0 1 55.03027-.13993l.68018.6499 144.46 138.68994a35.014 35.014 0 0 1 2.43994 2.58008 36.923 36.923 0 0 1 8.91988 24.06008z" fill="#556c80"/><path d="m135.029 252.52h33.941v214.96h-33.941z" fill="#718799" transform="matrix(.707 -.707 .707 .707 -210.039 212.922)"/><path d="m479.08008 176.96-239.08008 247.04-152-152 244.18018-236.31006 144.46 138.68994a35.014 35.014 0 0 1 2.4399 2.58012z" fill="#8098ab"/><circle cx="152" cy="360" fill="#8098ab" r="24"/><path d="m488 296-16 48-164.53027 141.03a12.34535 12.34535 0 0 1 -8.03955 2.97 11.438 11.438 0 0 1 -11.43018-11.42993 11.27785 11.27785 0 0 1 .81982-4.24 11.57784 11.57784 0 0 1 2.32032-3.64014l148.85986-156.68993z" fill="#556c80"/><path d="m488 296-16 48-32-32z" fill="#718799"/><path d="m337.04016 29.26855a47.62715 47.62715 0 0 0 -66.13769.167l-240.66895 233.37793a46.83719 46.83719 0 0 0 -1.27637 65.96582l146.14453 153.10351a45.60746 45.60746 0 0 0 65.71778.27442l242.48926-249.83789a44.69906 44.69906 0 0 0 12.6914-31.29688 45.15629 45.15629 0 0 0 -13.8164-32.416zm-97.1333 383.32374-56.10327-56.10329a32.05579 32.05579 0 0 0 -28.29248-28.29248l-56.10327-56.10326 232.79687-225.28711 135.65772 130.23194zm-115.96362-67.96338-16.62891-16.62867 12.686-12.686 16.62867 16.62888a32.23131 32.23131 0 0 0 -12.68576 12.68579zm-15.25733-40.62915-12.686 12.686-20.68631-20.68576 12.68652-12.68652zm43.31421 40.00024a16 16 0 1 1 -16 16 16.01833 16.01833 0 0 1 16-16zm28.05688 31.37109 16.6289 16.62867-12.686 12.686-16.62866-16.62891a32.23138 32.23138 0 0 0 12.68576-12.68576zm27.94336 27.94312 20.68629 20.68579-12.68653 12.68652-20.68579-20.68628zm263.82789-182.13843-242.48925 249.83789a29.60869 29.60869 0 0 1 -42.66309-.17773l-146.14454-153.10449a30.83707 30.83707 0 0 1 .83985-43.43165l240.66992-233.37792a31.642 31.642 0 0 1 37.98779-4.59913l-237.59228 229.92825.00366.0039c-.03174.03052-.06616.05664-.09741.08789l-24 24a8.0012 8.0012 0 0 0 0 11.31446l61.85376 61.85375a32.05578 32.05578 0 0 0 28.29248 28.29248l61.85376 61.85376a8.0018 8.0018 0 0 0 11.31445 0l24-24c.03125-.03125.05737-.06568.08789-.09742l.00391.00367 231.98685-239.71974a28.8673 28.8673 0 0 1 -5.90771 31.332z"/><path d="m138.3429 250.34277-16 16a8.0012 8.0012 0 0 0 0 11.31446l16 16 11.31445-11.31446-10.34375-10.34277 10.34375-10.34277z"/><path d="m445.65735 170.34277-16-16-11.31445 11.31446 10.34375 10.34277-10.34375 10.34277 11.31445 11.31446 16-16a8.00122 8.00122 0 0 0 0-11.31446z"/><path d="m330.3429 74.34277-16 16 11.31445 11.31446 10.34277-10.34375 10.34278 10.34375 11.31445-11.31446-16-16a8.003 8.003 0 0 0 -11.31445 0z"/><path d="m240.00012 372.68652-10.34277-10.34375-11.31445 11.31446 16 16a8.0018 8.0018 0 0 0 11.31445 0l16-16-11.31445-11.31446z"/><path d="m312.673 491.10352 164.53321-141.0293a8.00044 8.00044 0 0 0 2.38379-3.544l16-48a8.00048 8.00048 0 0 0 -10.12012-10.12011l-48 16a8.00457 8.00457 0 0 0 -3.26953 2.08007l-148.8555 156.69048a19.43385 19.43385 0 0 0 14.08984 32.81934 20.35727 20.35727 0 0 0 13.23831-4.89648zm155.831-161.91382-13.69336-13.69361 20.54-6.84668zm-172.50388 147.37573a3.42 3.42 0 0 1 .94434-2.36523l143.20215-150.739 20.08789 20.0874-157.97266 135.4055a4.34579 4.34579 0 0 1 -2.82715 1.0459 3.43882 3.43882 0 0 1 -3.43457-3.43457z"/></g></svg>