<svg height="512" viewBox="0 0 512 512" width="512" xmlns="http://www.w3.org/2000/svg"><g id="filled_outline" data-name="filled outline"><path d="m328 328v56.87012a16.15069 16.15069 0 0 1 -5.3 11.8999l-70.14 63.12012a15.70122 15.70122 0 0 1 -4.56 2.87986 15.87349 15.87349 0 0 1 -6.14 1.23h-121.86a15.99568 15.99568 0 0 1 -16-16v-120z" fill="#d1e4ff"/><path d="m104 216h224v112h-224z" fill="#639aff"/><path d="m24 216h80a0 0 0 0 1 0 0v208a0 0 0 0 1 0 0h-56a24 24 0 0 1 -24-24v-184a0 0 0 0 1 0 0z" fill="#548aff"/><path d="m328 216h160a0 0 0 0 1 0 0v184a24 24 0 0 1 -24 24h-136a0 0 0 0 1 0 0v-208a0 0 0 0 1 0 0z" fill="#548aff"/><path d="m24 168h440a24 24 0 0 1 24 24v24a0 0 0 0 1 0 0h-464a0 0 0 0 1 0 0v-48a0 0 0 0 1 0 0z" fill="#7dafff"/><path d="m168 248h48v48h-48z" fill="#08d175"/><path d="m360 320h96v72h-96z" fill="#4976f2"/><path d="m24 168v-4.24887a24 24 0 0 1 19.38205-23.55153l388.61795-76.1996 8 32-384 72z" fill="#639aff"/><path d="m326.31 392a15.80058 15.80058 0 0 1 -3.61 4.77l-70.14 63.12012a15.70122 15.70122 0 0 1 -4.56 2.87988v-54.77a15.99552 15.99552 0 0 1 16-16z" fill="#e8f2ff"/><path d="m464.00012 160h-321.92169l299.39581-56.13672a8.0006 8.0006 0 0 0 6.28711-9.80371l-8-32a8.00178 8.00178 0 0 0 -9.30029-5.91016l-388.61865 76.19922a32.06458 32.06458 0 0 0 -25.84229 31.40237v236.249a32.03635 32.03635 0 0 0 32 32h48v16a24.02719 24.02719 0 0 0 24 24h121.86035a23.96138 23.96138 0 0 0 16.05469-6.16113l62.085-55.876v14.03713a8.00009 8.00009 0 0 0 8 8h136a32.03635 32.03635 0 0 0 32-32v-208a32.03635 32.03635 0 0 0 -32.00004-32zm16 32v16h-448v-32h432a16.01833 16.01833 0 0 1 16 16zm-160 128h-208v-96h208zm-275.07861-171.9502 381.16064-74.7373 4.09717 16.38965-374.92285 70.29785h-22.80957a16.04368 16.04368 0 0 1 12.47461-11.9502zm3.07861 267.9502a16.01833 16.01833 0 0 1 -16-16v-176h64v192zm64 32v-112h208v48h-56a24.02719 24.02719 0 0 0 -24 24v48h-120a8.00917 8.00917 0 0 1 -8-8zm144-1.96338v-38.03662a8.00917 8.00917 0 0 1 8-8h43.15228zm224-46.03662a16.01833 16.01833 0 0 1 -16 16h-128v-192h144z"/><path d="m168.00012 304h48a8.00008 8.00008 0 0 0 8-8v-48a8.00008 8.00008 0 0 0 -8-8h-48a8.00009 8.00009 0 0 0 -8 8v48a8.00009 8.00009 0 0 0 8 8zm8-48h32v32h-32z"/><circle cx="136" cy="248" r="8"/><circle cx="136" cy="272" r="8"/><circle cx="136" cy="296" r="8"/><path d="m248 248h16v16h-16z"/><path d="m280 248h16v16h-16z"/><path d="m248 280h16v16h-16z"/><path d="m280 280h16v16h-16z"/><path d="m360.00012 400h96a8.00008 8.00008 0 0 0 8-8v-72a8.00008 8.00008 0 0 0 -8-8h-96a8.00009 8.00009 0 0 0 -8 8v72a8.00009 8.00009 0 0 0 8 8zm88-16h-16v-56h16zm-32 0h-16v-56h16zm-48-56h16v56h-16z"/><path d="m368 280h16v16h-16z"/><path d="m400 280h16v16h-16z"/><path d="m432 280h16v16h-16z"/><path d="m56 344h16v48h-16z"/></g></svg>