<svg height="512" viewBox="0 0 512 512" width="512" xmlns="http://www.w3.org/2000/svg"><g id="filled_outline" data-name="filled outline"><path d="m40 304h432a16 16 0 0 1 16 16v88a0 0 0 0 1 0 0h-464a0 0 0 0 1 0 0v-88a16 16 0 0 1 16-16z" fill="#548aff"/><path d="m48 408h416v24h-416z" fill="#486be0"/><path d="m24 432h464a0 0 0 0 1 0 0v16a16 16 0 0 1 -16 16h-432a16 16 0 0 1 -16-16v-16a0 0 0 0 1 0 0z" fill="#548aff"/><g fill="#4976f2"><path d="m64 464h56a0 0 0 0 1 0 0 24 24 0 0 1 -24 24h-8a24 24 0 0 1 -24-24 0 0 0 0 1 0 0z"/><path d="m392 464h56a0 0 0 0 1 0 0 24 24 0 0 1 -24 24h-8a24 24 0 0 1 -24-24 0 0 0 0 1 0 0z"/><path d="m64 344h384v64h-384z"/><path d="m128 304-24-280h-16l-24 280z"/><path d="m448 304-24-280h-16l-24 280z"/></g><path d="m472.00012 296h-16.65649l-23.3728-272.68359a8 8 0 0 0 -7.97071-7.31641h-16a8 8 0 0 0 -7.9707 7.31641l-23.3728 272.68359h-241.313l-23.37279-272.68359a8 8 0 0 0 -7.97071-7.31641h-16a8 8 0 0 0 -7.9707 7.31641l-23.3728 272.68359h-16.6565a24.0275 24.0275 0 0 0 -24 24v88a8.00009 8.00009 0 0 0 8 8h16v8h-16a8.00009 8.00009 0 0 0 -8 8v16a24.0275 24.0275 0 0 0 24 24h17.0127a32.05731 32.05731 0 0 0 30.9873 24h8a32.05731 32.05731 0 0 0 30.98731-24h258.02539a32.05731 32.05731 0 0 0 30.9873 24h8a32.05731 32.05731 0 0 0 30.98731-24h17.01269a24.0275 24.0275 0 0 0 24-24v-16a8.00008 8.00008 0 0 0 -8-8h-16v-8h16a8.00008 8.00008 0 0 0 8-8v-88a24.0275 24.0275 0 0 0 -24-24zm-56.65625-264h1.3125l22.62863 264h-46.56979zm-320 0h1.3125l22.62863 264h-46.56979zm.65625 448h-8a16.008 16.008 0 0 1 -13.85254-8h35.70508a16.008 16.008 0 0 1 -13.85254 8zm328 0h-8a16.008 16.008 0 0 1 -13.85254-8h35.70508a16.008 16.008 0 0 1 -13.85254 8zm56-32a8.00917 8.00917 0 0 1 -8 8h-432a8.00917 8.00917 0 0 1 -8-8v-8h448zm-24-24h-400v-8h400zm-16-24h-368v-48h368zm40 0h-24v-56a8.00008 8.00008 0 0 0 -8-8h-384a8.00009 8.00009 0 0 0 -8 8v56h-24v-80a8.00917 8.00917 0 0 1 8-8h432a8.00917 8.00917 0 0 1 8 8z"/><path d="m96 368h56v16h-56z"/><circle cx="288" cy="376" r="8"/><circle cx="328" cy="376" r="8"/><circle cx="368" cy="376" r="8"/><circle cx="408" cy="376" r="8"/></g></svg>