<svg height="512" viewBox="0 0 512 512" width="512" xmlns="http://www.w3.org/2000/svg"><g id="filled_outline" data-name="filled outline"><path d="m264 344v56h-240v-104h192z" fill="#548aff"/><path d="m168 296 320-152h-144l-320 152z" fill="#486be0"/><path d="m264 344h224v56h-224z" fill="#4976f2"/><path d="m488 344h-224l-48-48h224z" fill="#486be0"/><path d="m24 296 32-80 208-104 80 32z" fill="#548aff"/><path d="m264 112h152l72 32h-144z" fill="#4976f2"/><path d="m376 296h.00007a71.99993 71.99993 0 0 0 71.99993-71.99993v-24.00007h-160v24.00007a71.99993 71.99993 0 0 1 -71.99993 71.99993z" fill="#d1e4ff"/><path d="m493.65735 338.34277-48-48a8.00235 8.00235 0 0 0 -5.65723-2.34277h-16.05542a79.9264 79.9264 0 0 0 32.05542-64v-24a8.00039 8.00039 0 0 0 -8-8h-42.40625l85.83887-40.77344-.00147-.00342a7.99641 7.99641 0 0 0 -.18212-14.53369l-72-32a8.0073 8.0073 0 0 0 -3.249-.68945h-152v.01a7.99568 7.99568 0 0 0 -3.57812.83472l-208 104a7.99957 7.99957 0 0 0 -3.84961 4.18457l-31.939 79.84716-.01318.03321-.04785.11963c-.01026.02588-.01465.05273-.02466.07861a7.91873 7.91873 0 0 0 -.30737.97754c-.01368.05566-.03028.11059-.04273.1665a7.9746 7.9746 0 0 0 -.16235 1.05225c-.00684.07812-.00733.15552-.01172.2334-.00879.15381-.02344.30639-.02344.4624v104.00001a8.00039 8.00039 0 0 0 8 8h464a8.00039 8.00039 0 0 0 8-8v-56a7.975 7.975 0 0 0 -2.34326-5.65674zm-56.9707-34.34277 7.99975 8h-12.68628v16h28.686l7.99975 8h-201.37129l-8.00025-8h28.68579v-16h-44.68628l-8.00024-8h201.373zm-233.198-16 68.10205-32.34839a64.02679 64.02679 0 0 1 -55.59058 32.34839zm236.51147-80v16a64.07207 64.07207 0 0 1 -64 64h-112.0498a79.92764 79.92764 0 0 0 32.0498-64v-16h75.325l.10767.22656.477-.22656zm-152-16a8.00039 8.00039 0 0 0 -8 8v24a64.16085 64.16085 0 0 1 -.84839 10.34595l-112.95581 53.65405h-106.70727l286.31567-136h106.70728l-84.21045 40zm162.30274-56h-104.7627l-40-16h108.7627zm-388.00486 85.79492 202.06641-101.0332 59.667 23.86719-285.02055 135.38379zm-30.29788 130.20508h32v-16h-32v-32h180.68555l32 32h-148.68555v16h160v40h-224zm448 40h-208v-40h208z"/><path d="m320 312h16v16h-16z"/><path d="m352 312h16v16h-16z"/><path d="m384 312h16v16h-16z"/></g></svg>