<svg height="512" viewBox="0 0 512 512" width="512" xmlns="http://www.w3.org/2000/svg"><g id="filled_outline" data-name="filled outline"><path d="m424 152v64h16v248a24 24 0 0 1 -24 24h-88l-16-16h-112l-16 16h-88a24 24 0 0 1 -24-24v-256h32v-120h-32v-40a24 24 0 0 1 24-24h264l80 80v48z" fill="#548aff"/><path d="m72 88h32a0 0 0 0 1 0 0v72a0 0 0 0 1 0 0h-16a16 16 0 0 1 -16-16v-56a0 0 0 0 1 0 0z" fill="#7dafff"/><rect fill="#d1e4ff" height="352" rx="24" width="256" x="136" y="88"/><path d="m392 160h-256v-48a24 24 0 0 1 24-24h208a24 24 0 0 1 24 24z" fill="#7dafff"/><rect fill="#bdd1f2" height="88" rx="8" width="192" x="168" y="320"/><path d="m365.65686 18.34277a8.00035 8.00035 0 0 0 -5.65674-2.34277h-264a32.03635 32.03635 0 0 0 -32 32v96a24.02719 24.02719 0 0 0 24 24h8v32h-24a8.00009 8.00009 0 0 0 -8 8v256a32.03635 32.03635 0 0 0 32 32h88a8.00035 8.00035 0 0 0 5.65674-2.34277l13.65674-13.65723h105.373l13.65673 13.65723a8.00035 8.00035 0 0 0 5.65679 2.34277h88a32.03635 32.03635 0 0 0 32-32v-248a8.00008 8.00008 0 0 0 -8-8h-8v-48h8a8.00008 8.00008 0 0 0 8-8v-48a8.00076 8.00076 0 0 0 -2.34326-5.65723zm-277.65674 133.65723a8.00917 8.00917 0 0 1 -8-8v-48h16v56zm344-8h-8a8.00009 8.00009 0 0 0 -8 8v64a8.00009 8.00009 0 0 0 8 8h8v240a16.01833 16.01833 0 0 1 -16 16h-84.68652l-13.65674-13.65723a8.00035 8.00035 0 0 0 -5.65674-2.34277h-112a8.00035 8.00035 0 0 0 -5.65674 2.34277l-13.65673 13.65723h-84.68653a16.01833 16.01833 0 0 1 -16-16v-248h24a8.00008 8.00008 0 0 0 8-8v-120a8.00008 8.00008 0 0 0 -8-8h-24v-32a16.01833 16.01833 0 0 1 16-16h260.68653l75.31347 75.31348z"/><path d="m128.00012 112v304a32.03635 32.03635 0 0 0 32 32h208a32.03635 32.03635 0 0 0 32-32v-304a32.03635 32.03635 0 0 0 -32-32h-208a32.03635 32.03635 0 0 0 -32 32zm240 320h-208a16.01833 16.01833 0 0 1 -16-16v-248h240v248a16.01833 16.01833 0 0 1 -16 16zm16-320v40h-240v-40a16.01833 16.01833 0 0 1 16-16h208a16.01833 16.01833 0 0 1 16 16z"/><path d="m160 184h64v16h-64z"/><path d="m248 184h32v16h-32z"/><path d="m352.00012 312h-176a16.01833 16.01833 0 0 0 -16 16v72a16.01833 16.01833 0 0 0 16 16h176a16.01833 16.01833 0 0 0 16-16v-72a16.01833 16.01833 0 0 0 -16-16zm0 88h-176v-72h176z"/><path d="m232 368h64v16h-64z"/><path d="m312 368h24v16h-24z"/></g></svg>