<svg height="512" viewBox="0 0 512 512" width="512" xmlns="http://www.w3.org/2000/svg"><g id="filled_outline" data-name="filled outline"><path d="m424 112-32.89 32.89-18.57-18.12-6.13-5.97-14.12-13.78-6.13-5.97-14.12-13.78-6.13-5.97-23.9-23.31 33.99-33.99 18.34 18.34 11.32 11.32z" fill="#ffc431"/><path d="m488 176-31.94 31.94-50.4-45.6 34.34-34.34 18.34 18.34 11.32 11.32z" fill="#ffc431"/><path d="m280 24-256 256 208 208 256-256zm-192 272a16 16 0 1 1 16-16 16.00008 16.00008 0 0 1 -16 16zm144 144a16 16 0 1 1 16-16 16.00008 16.00008 0 0 1 -16 16z" fill="#02c26a"/><path d="m120 232 120-120 160 152-120 128z" fill="#718799"/><path d="m493.65686 170.34277-48-48a8.00182 8.00182 0 0 0 -11.31348 0l-22.34326 22.34323-4.686-4.686 22.34277-22.34277a8.00034 8.00034 0 0 0 0-11.31446l-88-88a8.00182 8.00182 0 0 0 -11.31348 0l-22.34329 22.34323-22.34326-22.34323a8.00182 8.00182 0 0 0 -11.31348 0l-256 256a8.00034 8.00034 0 0 0 0 11.31446l208 208a8.00063 8.00063 0 0 0 11.31348 0l256-256a8.00034 8.00034 0 0 0 0-11.31446l-22.34277-22.34277 22.34277-22.34277a8.00034 8.00034 0 0 0 0-11.31446zm-53.65674-31.02929 12.68628 12.68628-16.68628 16.68624-12.68603-12.686zm-44-10.62744-12.68603-12.68604 16.686-16.686 12.68607 12.686zm-52.68603-52.68604 16.68628-16.68628 8.68591 8.68628-16.68616 16.686zm36.68615 3.314 8.68592 8.686-16.686 16.686-8.68607-8.686zm-44.00012-44.00052 12.68628 12.68628-16.68628 16.68624-12.68603-12.686zm-104 441.373-196.68652-196.68648 244.68652-244.68652 60.68653 60.68652h-4.68653a8.00035 8.00035 0 0 0 -5.65674 2.34277l-22.34326 22.34323-8.686-8.686 18.34277-18.34277a8.00034 8.00034 0 0 0 0-11.31446l-16-16-11.31351 11.31446 10.34327 10.34277-12.68653 12.686-18.34326-18.34323a8.00182 8.00182 0 0 0 -11.31348 0l-24 24-120 120a8.00034 8.00034 0 0 0 0 11.31446l160 160a8.00138 8.00138 0 0 0 5.65674 2.34277c.04248 0 .08594 0 .12891-.001a8.00279 8.00279 0 0 0 5.70752-2.52734l120-128a7.9997 7.9997 0 0 0 -.32666-11.27148l-96.61328-91.78272 16.76025-16.76025a8.00034 8.00034 0 0 0 0-11.31446l-6.34277-6.34275 19.99951-20h17.373l120 120zm156.728-212.36035-108.91354 116.17487-148.50098-148.501 108.82959-108.8291zm-91.43552-108.93233-45.832-43.54053 12.53955-12.53979 44.6865 44.68652zm162.70752 37.2922-12.68603-12.686 16.68628-16.68628 12.68628 12.68628z"/><path d="m112.00012 280a24 24 0 1 0 -24 24 24.02718 24.02718 0 0 0 24-24zm-24 8a8 8 0 1 1 8-8 8.00917 8.00917 0 0 1 -8 8z"/><path d="m232.00012 400a24 24 0 1 0 24 24 24.02719 24.02719 0 0 0 -24-24zm0 32a8 8 0 1 1 8-8 8.00917 8.00917 0 0 1 -8 8z"/><circle cx="112" cy="320" r="8"/><circle cx="128" cy="304" r="8"/><circle cx="128" cy="336" r="8"/><circle cx="144" cy="320" r="8"/><circle cx="144" cy="352" r="8"/><circle cx="160" cy="336" r="8"/><path d="m163.03 364h33.941v16h-33.941z" transform="matrix(.707 -.707 .707 .707 -210.323 236.236)"/><path d="m179.03 380h33.941v16h-33.941z" transform="matrix(.707 -.707 .707 .707 -216.95 252.236)"/><path d="m338.34338 162.34277a8.00034 8.00034 0 0 0 0 11.31446l24 24a8.00063 8.00063 0 0 0 11.31348 0l24-24a8.00034 8.00034 0 0 0 0-11.31446l-24-24a8.00182 8.00182 0 0 0 -11.31348 0zm42.34327 5.65723-12.68653 12.68652-12.68652-12.68652 12.68652-12.68652z"/><path d="m387.03 196h33.941v16h-33.941z" transform="matrix(.707 -.707 .707 .707 -25.921 345.421)"/><path d="m411.03 220h33.941v16h-33.941z" transform="matrix(.707 -.707 .707 .707 -35.862 369.421)"/><path d="m256 202.745h16v90.51h-16z" transform="matrix(.707 -.707 .707 .707 -98.039 259.314)"/><path d="m208 188.686h16v22.627h-16z" transform="matrix(.707 -.707 .707 .707 -78.156 211.314)"/><path d="m244 159.716h16v56.569h-16z" transform="matrix(.707 -.707 .707 .707 -59.127 233.255)"/><path d="m332 243.029h16v33.941h-16z" transform="matrix(.707 -.707 .707 .707 -84.264 316.569)"/><path d="m176 225.373h16v45.255h-16z" transform="matrix(.707 -.707 .707 .707 -121.472 202.758)"/></g></svg>