<svg height="512" viewBox="0 0 512 512" width="512" xmlns="http://www.w3.org/2000/svg"><g id="filled_outline" data-name="filled outline"><rect fill="#4976f2" height="184" rx="24" width="128" x="24" y="208"/><rect fill="#4976f2" height="184" rx="24" width="128" x="360" y="208"/><path d="m360 152v208h-208v-208l24-32h160z" fill="#548aff"/><circle cx="88" cy="264" fill="#3b57c4" r="24"/><g fill="#486be0"><circle cx="256" cy="240" r="40"/><path d="m216 392h-32l-8-32h48z"/><path d="m328 392h-32l-8-32h48z"/></g><circle cx="424" cy="264" fill="#3b57c4" r="24"/><path d="m152 152h208l-24-32h-160z" fill="#639aff"/><path d="m88.00012 232a32 32 0 1 0 32 32 32.03667 32.03667 0 0 0 -32-32zm0 48a16 16 0 1 1 16-16 16.01833 16.01833 0 0 1 -16 16z"/><path d="m256.00012 192a48 48 0 1 0 48 48 48.05375 48.05375 0 0 0 -48-48zm0 80a32 32 0 1 1 32-32 32.03667 32.03667 0 0 1 -32 32z"/><path d="m56 352h64v16h-64z"/><path d="m424.00012 232a32 32 0 1 0 32 32 32.03667 32.03667 0 0 0 -32-32zm0 48a16 16 0 1 1 16-16 16.01833 16.01833 0 0 1 -16 16z"/><path d="m464.00012 200h-80a31.79207 31.79207 0 0 0 -16 4.30518v-52.30518a8.0033 8.0033 0 0 0 -1.59961-4.7998l-24-32a8.00229 8.00229 0 0 0 -6.40039-3.2002h-160a8.00229 8.00229 0 0 0 -6.40039 3.2002l-24 32a8.00336 8.00336 0 0 0 -1.59961 4.7998v52.30518a31.792 31.792 0 0 0 -16-4.30518h-80a32.03667 32.03667 0 0 0 -32 32v136a32.03667 32.03667 0 0 0 32 32h80a32.03667 32.03667 0 0 0 32-32h9.75415l6.48511 25.94043a7.99866 7.99866 0 0 0 7.76074 6.05957h32a7.99865 7.99865 0 0 0 7.76074-6.05957l6.48514-25.94043h51.508l6.48535 25.94043a7.99866 7.99866 0 0 0 7.76077 6.05957h32a7.99865 7.99865 0 0 0 7.76074-6.05957l6.48536-25.94043h9.7539a32.03667 32.03667 0 0 0 32 32h80a32.03667 32.03667 0 0 0 32-32v-136a32.03667 32.03667 0 0 0 -32-32zm-320 168a16.01833 16.01833 0 0 1 -16 16h-80a16.01833 16.01833 0 0 1 -16-16v-136a16.01833 16.01833 0 0 1 16-16h80a16.01833 16.01833 0 0 1 16 16zm65.75388 16h-19.50778l-4-16h27.50778zm112 0h-19.50778l-4-16h27.50778zm14.24609-32h-176v-197.333l20-26.667h152l12 16h-120v16h128v192zm144 16a16.01833 16.01833 0 0 1 -16 16h-80a16.01833 16.01833 0 0 1 -16-16v-136a16.01833 16.01833 0 0 1 16-16h80a16.01833 16.01833 0 0 1 16 16z"/><path d="m392 352h64v16h-64z"/></g></svg>