<svg height="512" viewBox="0 0 512 512" width="512" xmlns="http://www.w3.org/2000/svg"><g id="filled_outline" data-name="filled outline"><rect fill="#8098ab" height="464" rx="24" width="160" x="120" y="24"/><path d="m68 380h48v56h-48z" fill="#ffc431" transform="matrix(0 -1 1 0 -316 500)"/><path d="m68 300h48v56h-48z" fill="#ffc431" transform="matrix(0 -1 1 0 -236 420)"/><path d="m320 435.15562a95.26659 95.26659 0 0 0 16 52.84438h56a95.26659 95.26659 0 0 0 16-52.84436v-358.31126a95.26659 95.26659 0 0 0 -16-52.84438h-56a95.26659 95.26659 0 0 0 -16 52.84436z" fill="#8098ab"/><g fill="#62798c"><path d="m344 72h40v80h-40z"/><path d="m344 184h40v80h-40z"/><path d="m344 288h16v32h-16z"/><path d="m368 288h16v88h-16z"/><rect height="56" rx="12" width="24" x="352" y="400"/></g><path d="m256.00012 16h-112a32.03667 32.03667 0 0 0 -32 32v248h-48a8.00039 8.00039 0 0 0 -8 8v48a8.00039 8.00039 0 0 0 8 8h48v16h-48a8.00039 8.00039 0 0 0 -8 8v48a8.00039 8.00039 0 0 0 8 8h48v24a32.03667 32.03667 0 0 0 32 32h112a32.03667 32.03667 0 0 0 32-32v-416a32.03667 32.03667 0 0 0 -32-32zm-184 328v-32h40v32zm0 80v-32h40v32zm200 40a16.01833 16.01833 0 0 1 -16 16h-112a16.01833 16.01833 0 0 1 -16-16v-416a16.01833 16.01833 0 0 1 16-16h112a16.01833 16.01833 0 0 1 16 16z"/><circle cx="200" cy="64" r="8"/><path d="m392.00012 16h-56a7.99943 7.99943 0 0 0 -6.65625 3.5625 102.94062 102.94062 0 0 0 -17.34375 57.28223v358.31054a102.94062 102.94062 0 0 0 17.34375 57.28223 7.99943 7.99943 0 0 0 6.65625 3.5625h56a7.99942 7.99942 0 0 0 6.65625-3.5625 102.94062 102.94062 0 0 0 17.34375-57.28223v-358.31054a102.94062 102.94062 0 0 0 -17.34375-57.28223 7.99942 7.99942 0 0 0 -6.65625-3.5625zm8 419.15527a86.95909 86.95909 0 0 1 -12.40234 44.84473h-47.19531a86.959 86.959 0 0 1 -12.40235-44.84473v-358.31054a86.959 86.959 0 0 1 12.40235-44.84473h47.19531a86.95909 86.95909 0 0 1 12.40234 44.84473z"/><path d="m344.00012 64a8.00039 8.00039 0 0 0 -8 8v80a8.00039 8.00039 0 0 0 8 8h40a8.00039 8.00039 0 0 0 8-8v-80a8.00039 8.00039 0 0 0 -8-8zm32 80h-24v-64h24z"/><path d="m384.00012 176h-40a8.00039 8.00039 0 0 0 -8 8v80a8.00039 8.00039 0 0 0 8 8h40a8.00039 8.00039 0 0 0 8-8v-80a8.00039 8.00039 0 0 0 -8-8zm-8 80h-24v-64h24z"/><path d="m344 288h16v32h-16z"/><path d="m368 288h16v88h-16z"/><path d="m364.00012 392a20.02229 20.02229 0 0 0 -20 20v32a20 20 0 0 0 40 0v-32a20.02229 20.02229 0 0 0 -20-20zm4 52a4 4 0 0 1 -8 0v-32a4 4 0 0 1 8 0z"/></g></svg>