<?xml version="1.0"?>
<svg xmlns="http://www.w3.org/2000/svg" viewBox="0 0 512 512" width="512" height="512"><g id="filled_outline" data-name="filled outline"><path d="M288,408l32-96h0l18.7018,6.23394A34.41524,34.41524,0,0,0,349.58481,320h0A34.41515,34.41515,0,0,0,384,285.58485V224h10.23394A13.76605,13.76605,0,0,0,408,210.23394v0a13.76616,13.76616,0,0,0-.70643-4.35321L400,184,248,32H202.57338A125.77693,125.77693,0,0,0,98.56512,87.05129l-.00007.0001a125.77688,125.77688,0,0,0-18.77353,98.01045l8.3004,37.3518L128,264l24,40-18.67237,56.0171L136,456H288Z" style="fill:#ffceb6"/><rect x="101.55953" y="152.20101" width="84.88094" height="39.59799" transform="translate(-79.44574 152.20101) rotate(-45)" style="fill:#a4b9e0"/><path d="M208,256H187.88224a28.68625,28.68625,0,0,1-20.28425-8.402l0,0A80.56848,80.56848,0,0,1,144,190.62745v-.00006A22.62739,22.62739,0,0,1,166.62739,168h0a22.6274,22.6274,0,0,1,16,6.62741L192,184l16,16Z" style="fill:#ffceb6"/><path d="M64,224l32,40h32l13.16535-52.6614A24.55523,24.55523,0,0,0,136.98747,190.65l0,0a24.55521,24.55521,0,0,0-37.00733-2.63Z" style="fill:#e0edff"/><path d="M394,96H256l-60.09889,59.08516a29.56708,29.56708,0,0,1-41.9973-.54516l0,0a29.56706,29.56706,0,0,1-1.98033-38.80615L224,24h28.77544a146.03,146.03,0,0,1,91.22422,31.99973Z" style="fill:#d1e4ff"/><path d="M272,96l56-40h96l43.59815,72.66358A30.88868,30.88868,0,0,1,472,144.55566v0a30.88864,30.88864,0,0,1-12.35545,24.71091L440,184H320Z" style="fill:#e0edff"/><path d="M376,144.56006a30.81071,30.81071,0,0,1-3.26,13.81006,31.12867,31.12867,0,0,1-7.82007,9.88989C364.51,168.6001,344,184,344,184H320L272,96l56-40,43.6001,72.65991A30.91384,30.91384,0,0,1,376,144.56006Z" style="fill:#c8dbf7"/><path d="M392,488l-16-40-88-40-14.28459,14.28459A60.48419,60.48419,0,0,1,230.94663,440h-.00006a60.48417,60.48417,0,0,1-55.06277-35.45565l-13.95254-30.69558A37.27206,37.27206,0,0,0,128,352h0L40,384V488Z" style="fill:#548aff"/><circle cx="176.00012" cy="136" r="8"/><path d="M430.86047,51.88379A8.00153,8.00153,0,0,0,424.00012,48H346.75793a154.61706,154.61706,0,0,0-93.98242-32H224.00012a8.00106,8.00106,0,0,0-6.291,3.05762L213.82581,24H202.57336A133.77789,133.77789,0,0,0,71.98254,186.79688l3.25538,14.65087-16.895,16.895a8.00243,8.00243,0,0,0-.58985,10.65528l32,40A8.00057,8.00057,0,0,0,96.00012,272h27.47l19.7771,32.96094L130.21326,344.061c-.73511-.03614-1.47217-.061-2.21314-.061a8.01109,8.01109,0,0,0-2.73437.48145l-88,32A8,8,0,0,0,32.00012,384V488a8.00039,8.00039,0,0,0,8,8h352a7.999,7.999,0,0,0,7.42774-10.9707l-16-40a8.00178,8.00178,0,0,0-4.11719-4.3125l-81.44312-37.01953,27.19263-81.57764,11.11377,3.70459A42.41571,42.41571,0,0,0,392.00012,285.585V232h2.23438a21.76828,21.76828,0,0,0,20.64941-28.64941L411.10022,192h28.8999a8.00335,8.00335,0,0,0,4.79981-1.59961l19.64453-14.7334a38.89061,38.89061,0,0,0,10.01465-51.11914ZM301.70544,84.613l46.4524,86.26855L341.33313,176h-16.584l-42.332-77.60938Zm59.30835,76.395L314.8302,75.23828l10.76807-7.6914,39.14013,65.23339a22.87372,22.87372,0,0,1-3.72461,28.22779ZM227.88879,32h24.88672a138.58333,138.58333,0,0,1,69.0857,18.55347L269.43616,88h-13.436a7.99948,7.99948,0,0,0-5.6084,2.29492l-60.09863,59.085a21.56684,21.56684,0,0,1-32.07812-28.7041ZM137.858,180.11816a32.51611,32.51611,0,0,0-12.40674-6.25488l18.698-18.698a37.19109,37.19109,0,0,0,3.99927,4.93238,38.12691,38.12691,0,0,0,3.96777,3.56543A30.8014,30.8014,0,0,0,137.858,180.11816Zm-50.25635,3.208A117.75989,117.75989,0,0,1,201.2384,40.02051L145.63391,110.791a37.556,37.556,0,0,0-7.67529,27.936L94.32336,182.3623l-5.6748,5.67481ZM74.71985,224.59375l30.918-30.917a16.55492,16.55492,0,0,1,27.7666,15.72168L121.754,256H99.84485ZM380.18372,480H48.00012V389.60352l81.32617-29.57325a29.34,29.34,0,0,1,25.32227,17.12891l13.95215,30.69531a68.48509,68.48509,0,0,0,110.77246,20.08692l10.36328-10.36426,80.0293,36.37695Zm19.5205-271.58887A5.76555,5.76555,0,0,1,394.2345,216H360.00012v16h16v53.585a26.41466,26.41466,0,0,1-34.76758,25.05957L274.5304,288.41016l-5.06055,15.17968,40.4104,13.46973-28.8728,86.61865L268.05872,416.627a52.48307,52.48307,0,0,1-84.89161-15.39355L169.215,370.53809a45.34131,45.34131,0,0,0-23.34717-22.84082l13.72217-41.167a8.00386,8.00386,0,0,0-.7295-6.64648l-22.29565-37.15918L144.9,229.38354a88.67615,88.67615,0,0,0,17.04053,23.87134A36.45018,36.45018,0,0,0,187.882,264h12.11816V248H187.882a20.55043,20.55043,0,0,1-14.627-6.05957A72.09378,72.09378,0,0,1,152.00012,190.627a14.62689,14.62689,0,0,1,24.96973-10.34277l25.373,25.37305,11.31445-11.31446-25.19312-25.19311A37.45481,37.45481,0,0,0,201.50989,160.79L259.27356,104h7.97705l45.72607,83.83105A8.00011,8.00011,0,0,0,320.00012,192h74.2334Zm55.14063-45.54492L437.33313,176H368.00037l.44409-.333a38.89061,38.89061,0,0,0,10.01465-51.11914L342.13025,64h77.34058l41.26757,68.78027a22.88759,22.88759,0,0,1-5.89355,30.08594Z"/><path d="M185.90637,212.4375l-11.25-16.875-13.3125,8.875,11.25,16.875A23.95221,23.95221,0,0,0,192.56262,232h7.4375V216h-7.4375A7.98487,7.98487,0,0,1,185.90637,212.4375Z"/></g></svg>
