<svg height="512" viewBox="0 0 512 512" width="512" xmlns="http://www.w3.org/2000/svg"><g id="filled_outline" data-name="filled outline"><path d="m296 432v-32l-16-32v-72h-48v72l-16 32v32z" fill="#8098ab"/><path d="m384 488a48.52919 48.52919 0 0 0 -29.41261-44.60537h-.00006a140.9261 140.9261 0 0 0 -55.51349-11.39463h-86.14768a140.9261 140.9261 0 0 0 -55.51349 11.39457h-.00006a48.52919 48.52919 0 0 0 -29.41261 44.60543z" fill="#556c80"/><path d="m400 168a143.88707 143.88707 0 1 1 -3.33008-30.89014 143.99853 143.99853 0 0 1 3.33008 30.89014z" fill="#62798c"/><path d="m400 168a144 144 0 1 1 -284.66992-30.89014l29.49 9.83008a22.18706 22.18706 0 0 1 15.17992 21.06006 96 96 0 0 0 192 0 22.19765 22.19765 0 0 1 15.18018-21.06006l29.48974-9.83008a144.2244 144.2244 0 0 1 3.33008 30.89014z" fill="#556c80"/><circle cx="256" cy="168" fill="#8098ab" r="96"/><circle cx="256" cy="168" fill="#84d8e8" r="32"/><path d="m216 400h80v32h-80z" fill="#62798c"/><path d="m408.00012 168c0-83.81348-68.18652-152-152-152s-152 68.18652-152 152c0 72.83813 51.50171 133.86377 120 148.59961v49.51172l-15.15527 30.31055a7.99934 7.99934 0 0 0 -.84473 3.57812v24.08984a147.99847 147.99847 0 0 0 -53.73828 11.95116 56.46713 56.46713 0 0 0 -34.26172 51.959 8.00039 8.00039 0 0 0 8 8h256a8.00039 8.00039 0 0 0 8-8 56.46713 56.46713 0 0 0 -34.26172-51.959 147.99728 147.99728 0 0 0 -53.73828-11.95118v-24.08982a7.99947 7.99947 0 0 0 -.84472-3.57812l-15.15528-30.31055v-49.51172c68.49805-14.73584 120-75.76148 120-148.59961zm-152-136c62.481 0 115.24805 42.35669 131.1167 99.86108l-22.46826 7.48951a30.20933 30.20933 0 0 0 -7.646 3.84375 104.00529 104.00529 0 0 0 -202.00512 0 30.20761 30.20761 0 0 0 -7.64576-3.84375l-22.46826-7.48951c15.86866-57.50439 68.63575-99.86108 131.1167-99.86108zm88 136a88 88 0 1 1 -88-88 88.09957 88.09957 0 0 1 88 88zm-224 0a136.49754 136.49754 0 0 1 1.52881-20.39062l20.76221 6.92089a14.17968 14.17968 0 0 1 9.70898 13.46973 104 104 0 0 0 208 0 14.17967 14.17967 0 0 1 9.709-13.46973l20.7622-6.92089a136.46437 136.46437 0 0 1 1.5288 20.39062c0 74.99023-61.00976 136-136 136s-136-61.00977-136-136zm168 256h-64v-16h64zm87.207 56h-238.41403a40.47856 40.47856 0 0 1 23.77149-29.252 132.1916 132.1916 0 0 1 52.36132-10.748h86.14844a132.19165 132.19165 0 0 1 52.36133 10.748 40.47855 40.47855 0 0 1 23.77148 29.252zm-102.36227-108.42188 10.21094 20.42188h-54.11133l10.21094-20.42188a7.99947 7.99947 0 0 0 .84472-3.57812v-48.84131a152.56434 152.56434 0 0 0 32 0v48.84131a7.99934 7.99934 0 0 0 .84473 3.57812z"/><path d="m256.00012 128a40 40 0 1 0 40 40 40.04584 40.04584 0 0 0 -40-40zm0 64a24 24 0 1 1 24-24 24.0275 24.0275 0 0 1 -24 24z"/><circle cx="192" cy="168" r="8"/><path d="m193.921 185.49829a7.99991 7.99991 0 1 0 10.48 4.26245 8.00009 8.00009 0 0 0 -10.48-4.26245z"/><path d="m200.68152 134.83594a8.00008 8.00008 0 1 0 4.08789 10.54931 8.00008 8.00008 0 0 0 -4.08789-10.54931z"/><circle cx="320" cy="168" r="8"/><path d="m311.86194 135.759a8 8 0 1 0 10.48 4.2627 8.00017 8.00017 0 0 0 -10.48-4.2627z"/><path d="m317.77991 186.52661a7.99987 7.99987 0 1 0 4.08838 10.54932 7.99977 7.99977 0 0 0 -4.08838-10.54932z"/><path d="m256.00012 224a55.94936 55.94936 0 0 1 -27.99316-7.4873l-8.01367 13.8496a72.08034 72.08034 0 0 0 72.01367 0l-8.01367-13.8496a55.9494 55.9494 0 0 1 -27.99317 7.4873z"/><path d="m256.00012 112a55.9494 55.9494 0 0 1 27.99317 7.4873l8.01367-13.8496a72.08034 72.08034 0 0 0 -72.01367 0l8.01367 13.8496a55.94936 55.94936 0 0 1 27.99316-7.4873z"/></g></svg>